<svg width="24" height="24" viewBox="0 0 24 24" fill="none" xmlns="http://www.w3.org/2000/svg">
<path d="M10.585 10.5869C10.21 10.9621 9.99936 11.4708 9.99945 12.0013C9.99954 12.5317 10.2104 13.0404 10.5855 13.4154C10.9607 13.7904 11.4694 14.0011 11.9999 14.001C12.5303 14.0009 13.039 13.7901 13.414 13.4149M16.6809 16.673C15.2782 17.5507 13.6546 18.0109 11.9999 18C8.39994 18 5.39994 16 2.99994 12C4.27194 9.88003 5.71194 8.32203 7.31994 7.32603M10.1799 6.18003C10.779 6.05876 11.3888 5.99845 11.9999 6.00003C15.5999 6.00003 18.5999 8.00003 20.9999 12C20.3339 13.11 19.6209 14.067 18.8619 14.87M2.99994 3L20.9999 21" stroke="#D2D2D5" stroke-width="1.8" stroke-linecap="round" stroke-linejoin="round"/>
</svg>
