<svg width="29" height="32" viewBox="0 0 29 32" fill="none" xmlns="http://www.w3.org/2000/svg">
<g clip-path="url(#clip0_6649_37347)">
<path d="M19.5404 14.7265C18.6103 16.5005 17.0475 17.8408 15.5397 19.1609C14.0319 20.4811 12.5013 21.875 11.6741 23.6987C10.8469 25.5225 10.9009 27.8989 12.3319 29.3003C9.12874 27.4348 6.99885 23.8499 6.89251 20.1446C6.84769 18.578 7.14963 16.9866 7.87997 15.6004C8.81503 13.8351 10.3748 12.4967 11.88 11.1822C13.3851 9.86775 14.9115 8.47504 15.7368 6.65506C15.7887 6.53986 15.8372 6.42351 15.8822 6.30603C16.1577 5.58947 16.288 4.82536 16.2658 4.05802C16.2332 3.08385 15.9358 2.12753 15.335 1.30945C16.8405 1.74393 18.0752 3.12031 18.9616 4.76558C19.4859 5.75016 19.8897 6.79426 20.1644 7.87534C20.3771 8.70823 20.4979 9.50846 20.5176 10.2039C20.5621 11.7625 20.2643 13.3455 19.5404 14.7265Z" fill="url(#paint0_linear_6649_37347)"/>
<path d="M15.4963 6.25216C14.6119 6.14397 13.7182 6.13582 12.832 6.22786C13.068 5.642 13.1906 5.01667 13.1932 4.38509C13.1932 4.23583 13.1883 4.07746 13.1735 3.91263C13.4667 3.89389 13.7613 3.88452 14.0573 3.88452C14.6668 3.88432 15.2757 3.92339 15.8803 4.0015C15.9152 4.77058 15.7843 5.53818 15.4963 6.25216Z" fill="url(#paint1_linear_6649_37347)"/>
<path d="M10.4866 0C11.008 0.771363 10.9898 1.76301 10.5792 2.58261C10.1448 3.44246 9.38517 4.08432 8.63507 4.68895C7.88498 5.29358 7.10868 5.90733 6.62596 6.73984C6.24616 7.39347 6.07222 8.15382 6.06424 8.90923C6.04525 10.6943 7.00309 12.4618 8.5105 13.4208C7.84776 12.719 7.86485 11.5739 8.29933 10.711C8.73382 9.84808 9.49569 9.20547 10.2465 8.59894C10.9974 7.99241 11.7756 7.37562 12.2568 6.53893C12.6317 5.88758 12.8048 5.13103 12.8128 4.3798C12.8284 2.93506 11.9784 0.494873 10.4866 0Z" fill="#F15A29"/>
<path d="M14.4512 29.7141C14.3205 29.7182 14.1891 29.7213 14.057 29.7213C13.4297 29.7215 12.8035 29.6717 12.1842 29.5724C12.12 29.5622 12.0558 29.5515 11.992 29.5401C6.47853 28.561 2.27875 23.7334 2.27875 17.9427C2.27791 16.3977 2.582 14.8677 3.17357 13.4404C3.76514 12.0131 4.63258 10.7166 5.72615 9.6252C5.69603 9.38715 5.68219 9.14732 5.68475 8.90739C5.69387 8.04297 5.90579 7.22831 6.29774 6.55266C6.41966 6.34402 6.55743 6.14506 6.70982 5.95752C3.95772 7.64841 1.87159 10.2352 0.802068 13.283C-0.267453 16.3308 -0.255165 19.6539 0.836867 22.6938C1.9289 25.7336 4.0341 28.3049 6.79863 29.9753C9.56316 31.6458 12.8185 32.3137 16.0175 31.8667C15.3198 31.408 14.793 30.5906 14.4512 29.7141Z" fill="url(#paint2_linear_6649_37347)"/>
<path d="M27.0075 12.4704C25.5788 9.1006 22.8958 6.41839 19.5256 4.99068L19.4959 4.97815C19.996 5.99466 20.3756 7.06611 20.627 8.17071C23.7671 10.2888 25.8359 13.8786 25.8359 17.9425C25.8359 23.4445 22.0436 28.0769 16.9361 29.3644C16.5632 30.1058 16.5871 30.9466 16.9992 31.56L17.0751 31.6739C19.0895 31.2292 20.9815 30.3469 22.617 29.0896C24.2525 27.8324 25.5915 26.2309 26.5392 24.3985C27.4869 22.5662 28.0201 20.5479 28.1011 18.4866C28.182 16.4253 27.8087 14.3714 27.0075 12.4704Z" fill="url(#paint3_linear_6649_37347)"/>
<path d="M16.6823 31.7715C16.1631 30.999 16.184 30.0074 16.5972 29.1889C17.0313 28.3294 17.7947 27.6902 18.5463 27.0879C19.2979 26.4855 20.0761 25.8725 20.5592 25.0416C20.939 24.3891 21.1171 23.6291 21.1289 22.8737C21.1532 21.0886 20.2007 19.3184 18.6959 18.3541C19.3568 19.0583 19.3347 20.2033 18.8991 21.0647C18.4635 21.9261 17.6982 22.5668 16.9455 23.1711C16.1927 23.7753 15.4134 24.3894 14.9295 25.225C14.5527 25.8752 14.3773 26.6302 14.367 27.3826C14.3477 28.8289 15.1904 31.2725 16.6823 31.7715Z" fill="url(#paint4_linear_6649_37347)"/>
</g>
<defs>
<linearGradient id="paint0_linear_6649_37347" x1="31.6377" y1="-23.332" x2="-8.0433" y2="61.8746" gradientUnits="userSpaceOnUse">
<stop stop-color="white"/>
<stop offset="0.15" stop-color="#ED1C24"/>
<stop offset="0.61" stop-color="#FBB040"/>
</linearGradient>
<linearGradient id="paint1_linear_6649_37347" x1="16.3258" y1="-10.1968" x2="9.33753" y2="45.2533" gradientUnits="userSpaceOnUse">
<stop stop-color="white"/>
<stop offset="0.15" stop-color="#ED1C24"/>
<stop offset="0.61" stop-color="#FBB040"/>
</linearGradient>
<linearGradient id="paint2_linear_6649_37347" x1="6.82034" y1="1.21958" x2="8.64336" y2="37.8318" gradientUnits="userSpaceOnUse">
<stop stop-color="white"/>
<stop offset="0.15" stop-color="#ED1C24"/>
<stop offset="0.61" stop-color="#FBB040"/>
</linearGradient>
<linearGradient id="paint3_linear_6649_37347" x1="21.2202" y1="0.502266" x2="23.0432" y2="37.1145" gradientUnits="userSpaceOnUse">
<stop stop-color="white"/>
<stop offset="0.15" stop-color="#ED1C24"/>
<stop offset="0.61" stop-color="#FBB040"/>
</linearGradient>
<linearGradient id="paint4_linear_6649_37347" x1="27.7745" y1="6.42629" x2="11.9751" y2="35.8984" gradientUnits="userSpaceOnUse">
<stop stop-color="white"/>
<stop offset="0.15" stop-color="#ED1C24"/>
<stop offset="0.61" stop-color="#FBB040"/>
</linearGradient>
<clipPath id="clip0_6649_37347">
<rect width="28.1139" height="32" fill="white"/>
</clipPath>
</defs>
</svg>
