<svg width="14" height="14" viewBox="0 0 14 14" fill="none" xmlns="http://www.w3.org/2000/svg">
<path d="M10.5 4.0835H9.33333L8.94952 2.93193C8.83052 2.57434 8.49622 2.3335 8.11938 2.3335H5.88062C5.50378 2.3335 5.16948 2.57434 5.05048 2.93193L4.66667 4.0835H3.5C2.33333 4.0835 1.75 4.66683 1.75 5.8335V10.5002C1.75 11.6668 2.33333 12.2502 3.5 12.2502H10.5C11.6667 12.2502 12.25 11.6668 12.25 10.5002V5.8335C12.25 4.66683 11.6667 4.0835 10.5 4.0835ZM7 9.91683C6.03342 9.91683 5.25 9.13341 5.25 8.16683C5.25 7.20025 6.03342 6.41683 7 6.41683C7.96658 6.41683 8.75 7.20025 8.75 8.16683C8.75 9.13341 7.96658 9.91683 7 9.91683ZM10.2083 6.7085C9.88633 6.7085 9.625 6.44716 9.625 6.12516C9.625 5.80316 9.88633 5.54183 10.2083 5.54183C10.5303 5.54183 10.7917 5.80316 10.7917 6.12516C10.7917 6.44716 10.5303 6.7085 10.2083 6.7085Z" fill="white"/>
</svg>
