<svg width="20" height="21" viewBox="0 0 20 21" fill="none" xmlns="http://www.w3.org/2000/svg">
<path d="M3.34333 14.4475C3.08779 14.3018 2.87523 14.0912 2.72715 13.8371C2.57906 13.5829 2.50071 13.2942 2.5 13V4.66667C2.5 3.75 3.25 3 4.16667 3H12.5C13.125 3 13.465 3.32083 13.75 3.83333M5.83333 8.55583C5.83333 7.96639 6.06749 7.40109 6.48429 6.98429C6.90109 6.56749 7.46639 6.33333 8.05583 6.33333H15.2775C15.5694 6.33333 15.8584 6.39082 16.128 6.50251C16.3977 6.6142 16.6427 6.77791 16.849 6.98429C17.0554 7.19067 17.2191 7.43567 17.3308 7.70532C17.4425 7.97497 17.5 8.26397 17.5 8.55583V15.7775C17.5 16.0694 17.4425 16.3584 17.3308 16.628C17.2191 16.8977 17.0554 17.1427 16.849 17.349C16.6427 17.5554 16.3977 17.7191 16.128 17.8308C15.8584 17.9425 15.5694 18 15.2775 18H8.05583C7.76397 18 7.47497 17.9425 7.20532 17.8308C6.93567 17.7191 6.69067 17.5554 6.48429 17.349C6.27791 17.1427 6.1142 16.8977 6.00251 16.628C5.89082 16.3584 5.83333 16.0694 5.83333 15.7775V8.55583Z" stroke="white" stroke-width="1.25" stroke-linecap="round" stroke-linejoin="round"/>
</svg>
