<svg width="20" height="20" viewBox="0 0 20 20" fill="none" xmlns="http://www.w3.org/2000/svg">
<path fill-rule="evenodd" clip-rule="evenodd" d="M12.7254 2.52218C13.6977 2.39785 14.6814 2.79544 15.6809 3.7359L15.6821 3.73699C16.6849 4.6854 17.1415 5.64748 17.073 6.62738C17.0068 7.57425 16.4579 8.37568 15.8319 9.03697M15.8319 9.03697L8.99366 16.275C8.80088 16.485 8.5413 16.6628 8.29522 16.7943C8.04598 16.9276 7.75768 17.0417 7.48702 17.0898L7.48286 17.0905L4.80048 17.5487C4.15001 17.6608 3.52626 17.4983 3.08192 17.0769C2.63821 16.6561 2.44214 16.0425 2.51478 15.3887L2.51499 15.3868L2.82466 12.6751C2.86063 12.4054 2.96081 12.1135 3.0789 11.8603C3.19656 11.608 3.35711 11.3404 3.54709 11.1382L3.54831 11.1369L10.39 3.8952C11.0163 3.23364 11.7859 2.64232 12.7254 2.52218M11.2982 4.75409L4.45815 11.994C4.38984 12.0669 4.29601 12.2079 4.21176 12.3886C4.12905 12.5659 4.07937 12.73 4.06447 12.8355L3.75713 15.5268L3.75704 15.5276C3.72161 15.8484 3.82131 16.0554 3.94207 16.1699C4.06232 16.2839 4.2719 16.3714 4.5881 16.3168L4.58906 16.3167L7.26998 15.8588C7.37438 15.8399 7.53523 15.7832 7.70585 15.692C7.87884 15.5995 8.00897 15.4998 8.07411 15.4283L8.08157 15.4201L14.9233 8.17854C15.4805 7.58992 15.7901 7.05354 15.826 6.54022C15.8596 6.05983 15.6621 5.43878 14.8239 4.64583C13.9903 3.86167 13.3616 3.70101 12.884 3.76208C12.3736 3.82734 11.8551 4.16586 11.2982 4.75409Z" fill="#8F9597"/>
<path fill-rule="evenodd" clip-rule="evenodd" d="M9.60641 4.9152C9.94747 4.86207 10.267 5.09548 10.3202 5.43654C10.6344 7.45373 12.2715 8.99757 14.3069 9.20257C14.6504 9.23716 14.9007 9.54361 14.8661 9.88705C14.8316 10.2305 14.5251 10.4809 14.1817 10.4463C11.5837 10.1846 9.48747 8.21178 9.08507 5.62897C9.03194 5.2879 9.26535 4.96834 9.60641 4.9152Z" fill="#8F9597"/>
</svg>
