<svg width="67" height="66" viewBox="0 0 67 66" fill="none" xmlns="http://www.w3.org/2000/svg">
<path d="M51.4578 48.0425C52.2635 48.8483 52.2635 50.1546 51.4578 50.9604C51.0563 51.3619 50.5283 51.5653 50.0003 51.5653C49.4723 51.5653 48.9443 51.3646 48.5428 50.9604L33.5003 35.9178L18.4578 50.9604C18.0563 51.3619 17.5283 51.5653 17.0003 51.5653C16.4723 51.5653 15.9443 51.3646 15.5428 50.9604C14.737 50.1546 14.737 48.8483 15.5428 48.0425L30.5853 33.0001L15.5428 17.9577C14.737 17.152 14.737 15.8456 15.5428 15.0399C16.3485 14.2341 17.6548 14.2341 18.4606 15.0399L33.5031 30.0824L48.5455 15.0399C49.3513 14.2341 50.6575 14.2341 51.4633 15.0399C52.269 15.8456 52.269 17.152 51.4633 17.9577L36.4208 33.0001L51.4578 48.0425Z" fill="white"/>
</svg>
