<svg width="21" height="20" viewBox="0 0 21 20" fill="none" xmlns="http://www.w3.org/2000/svg">
<g clip-path="url(#clip0_6697_7389)">
<path fill-rule="evenodd" clip-rule="evenodd" d="M10.3565 16.8146V17.8114C10.3565 18.6107 9.95815 19.3007 9.26593 19.7003C8.93288 19.8926 8.56116 19.9998 8.17577 20C7.79003 20.0002 7.41843 19.8928 7.08514 19.7003L2.65327 17.1416C1.96096 16.7419 1.56268 16.052 1.56268 15.2526V2.18117C1.56268 0.978398 2.54112 0 3.74385 0H13.5044C14.7073 0 15.6858 0.97832 15.6858 2.18117V4.9366C15.6858 5.33187 15.3648 5.65281 14.9696 5.65281C14.5742 5.65281 14.2535 5.33191 14.2535 4.9366V2.18117C14.2535 1.76816 13.9174 1.43211 13.5044 1.43211H4.95163L9.26593 3.9234C9.95792 4.32301 10.3565 5.01285 10.3565 5.81195V15.3824H13.5044C13.9174 15.3824 14.2535 15.0465 14.2535 14.6335V12.218C14.2535 11.8225 14.574 11.5018 14.9696 11.5018C15.365 11.5018 15.6858 11.8225 15.6858 12.218V14.6335C15.6858 15.8363 14.7073 16.8146 13.5044 16.8146H10.3565ZM16.9926 9.12336L16.2039 9.91207C15.9242 10.1917 15.9243 10.6451 16.2039 10.9248C16.2703 10.9913 16.3492 11.0441 16.4361 11.08C16.523 11.116 16.6162 11.1344 16.7102 11.1343C16.8043 11.1345 16.8975 11.1161 16.9844 11.0801C17.0714 11.0441 17.1503 10.9914 17.2168 10.9248L19.2277 8.91352C19.5073 8.63391 19.5073 8.18078 19.2277 7.90117L17.2168 5.89023C16.9371 5.61055 16.4837 5.61066 16.2039 5.8902C15.9243 6.16957 15.9244 6.62312 16.2039 6.90258L16.9926 7.69109H11.709C11.3133 7.69109 10.9929 8.01172 10.9929 8.40734C10.9929 8.80297 11.3133 9.1234 11.709 9.1234H16.9926V9.12336Z" fill="white"/>
</g>
<defs>
<clipPath id="clip0_6697_7389">
<rect width="20" height="20" fill="white" transform="translate(0.5)"/>
</clipPath>
</defs>
</svg>
