<svg width="21" height="20" viewBox="0 0 21 20" fill="none" xmlns="http://www.w3.org/2000/svg">
<path d="M17.9961 12.6518C17.9961 10.7904 16.9282 9.12919 15.3289 8.32112C15.2793 11.8901 12.3858 14.7836 8.81689 14.8333C9.62495 16.4326 11.2861 17.5005 13.1475 17.5005C14.0202 17.5005 14.8689 17.268 15.6145 16.8264L17.9749 17.4793L17.322 15.119C17.7636 14.3733 17.9961 13.5245 17.9961 12.6518Z" fill="#ffffff"/>
<path d="M14.4508 8.22758C14.4508 5.06935 11.8815 2.5 8.7233 2.5C5.56515 2.5 2.99585 5.06935 2.99585 8.22758C2.99585 9.25687 3.26983 10.259 3.79008 11.1389L3.01688 13.934L5.81206 13.1609C6.69189 13.6812 7.69403 13.9552 8.7233 13.9552C11.8815 13.9552 14.4508 11.3858 14.4508 8.22758ZM7.84441 6.89456H6.96552C6.96552 5.92524 7.754 5.13674 8.7233 5.13674C9.6926 5.13674 10.4811 5.92524 10.4811 6.89456C10.4811 7.38655 10.2728 7.85943 9.90946 8.19175L9.16275 8.87519V9.5606H8.28386V8.48818L9.31609 7.54334C9.50057 7.37454 9.6022 7.14417 9.6022 6.89456C9.6022 6.4099 9.20795 6.01565 8.7233 6.01565C8.23865 6.01565 7.84441 6.4099 7.84441 6.89456ZM8.28386 10.4395H9.16275V11.3184H8.28386V10.4395Z" fill="#ffffff"/>
</svg>
