<svg width="21" height="20" viewBox="0 0 21 20" fill="none" xmlns="http://www.w3.org/2000/svg">
<g clip-path="url(#clip0_6900_74)">
<path d="M19.9099 3.77844H8.62085C8.29726 3.77844 8.03491 4.04079 8.03491 4.36438V10.9091C8.03491 12.1368 7.03608 13.1357 5.80835 13.1357H4.55835C4.23476 13.1357 3.97241 13.398 3.97241 13.7216V15.6357C3.97241 15.9593 4.23476 16.2216 4.55835 16.2216H8.93362C9.01181 16.2216 9.0892 16.206 9.16124 16.1756C9.23329 16.1452 9.29853 16.1007 9.35312 16.0448C9.51233 15.8815 9.623 15.6958 9.80538 15.5518C10.002 15.3965 10.24 15.2734 10.4958 15.2734C10.7373 15.2734 10.9677 15.3801 11.1587 15.5213C11.3581 15.6687 11.4698 15.8716 11.6385 16.0447C11.6931 16.1007 11.7584 16.1452 11.8304 16.1756C11.9025 16.2059 11.9799 16.2216 12.058 16.2216H16.4333C16.7569 16.2216 17.0193 15.9592 17.0193 15.6356V13.7216C17.0193 13.398 16.7569 13.1356 16.4333 13.1356H15.1833C13.9557 13.1356 12.9569 12.1273 12.9569 10.8878C12.9569 9.27797 13.6776 7.13778 19.9099 7.13778C20.2335 7.13778 20.4958 6.87543 20.4958 6.55184V4.36434C20.4958 4.04075 20.2335 3.77844 19.9099 3.77844Z" fill="#ffffff"/>
<path d="M6.86304 9.10165V4.71594H1.05335C0.745459 4.71594 0.49585 4.96555 0.49585 5.27344C0.49585 7.38434 2.21319 9.10165 4.32409 9.10165H6.86304Z" fill="#ffffff"/>
</g>
<defs>
<clipPath id="clip0_6900_74">
<rect width="20" height="20" fill="white" transform="translate(0.49585)"/>
</clipPath>
</defs>
</svg>
