<svg width="21" height="20" viewBox="0 0 21 20" fill="none" xmlns="http://www.w3.org/2000/svg">
<path d="M17.8385 6.17935L10.6685 1.71602C10.5619 1.64935 10.4252 1.64935 10.3185 1.71602L3.14853 6.17935C3.05187 6.23935 2.99187 6.34601 2.99187 6.46268V7.75602C2.99187 7.93935 3.14187 8.08935 3.3252 8.08935H17.6619C17.8452 8.08935 17.9952 7.93935 17.9952 7.75602V6.46268C17.9952 6.34601 17.9352 6.23935 17.8385 6.17935ZM10.4952 6.85602C9.73186 6.85602 9.11187 6.23602 9.11187 5.47268C9.11187 4.70935 9.73186 4.08935 10.4952 4.08935C11.2585 4.08935 11.8785 4.70935 11.8785 5.47268C11.8785 6.23602 11.2585 6.85602 10.4952 6.85602ZM14.0052 8.75602H16.4719V13.8393H14.0052V8.75602ZM9.26186 8.75602H11.7285V13.8393H9.26186V8.75602ZM4.5152 8.75602H6.98186V13.8393H4.5152V8.75602ZM18.8285 16.4127V17.9993C18.8285 18.1827 18.6785 18.3327 18.4952 18.3327H2.4952C2.30853 18.3327 2.16187 18.1827 2.16187 17.9993V16.4127C2.16187 16.2293 2.30853 16.0793 2.4952 16.0793H3.2952V14.8393C3.2952 14.656 3.4452 14.506 3.62853 14.506H17.3619C17.5452 14.506 17.6952 14.656 17.6952 14.8393V16.0793H18.4952C18.6785 16.0793 18.8285 16.2293 18.8285 16.4127Z" fill="#ffffff"/>
</svg>
