<svg width="185" height="250" viewBox="0 0 185 250" fill="none" xmlns="http://www.w3.org/2000/svg">
<g clip-path="url(#clip0_6649_37189)">
<path d="M54.4361 191.257L38.1305 143.013L94.4506 124.754C94.4506 124.754 106.254 151.467 106.542 153.621C108.579 168.853 105.054 181.921 99.12 191.256L54.4361 191.257Z" fill="#E7A374"/>
<path d="M101.062 157.529H52.5237C50.3051 157.264 48.5065 154.488 48.5065 154.488L53.9436 147.049L104.793 148.845C105.796 151.319 106.477 153.126 106.543 153.622C106.653 154.44 106.736 155.236 106.803 156.018C104.384 157.525 101.062 157.529 101.062 157.529Z" fill="#AA734D"/>
<path d="M109.32 58.8896L96.256 76.7902C93.6875 80.3088 94.1637 85.0245 97.2921 86.9857L99.8945 88.6169C102.988 90.5559 107.363 88.9648 109.401 85.1599L119.862 65.6302C121.743 62.1217 120.918 58.0246 117.992 56.3527C115.243 54.7803 111.525 55.8686 109.32 58.8896Z" fill="#ECAC80"/>
<path d="M96.2548 76.787L109.319 58.8864C111.524 55.8655 115.242 54.7771 117.992 56.3473C118.482 56.6298 118.923 56.9875 119.301 57.4071C116.677 56.4762 113.475 57.6219 111.493 60.3356L98.4294 78.2363C96.06 81.4827 96.2909 85.746 98.7945 87.9248L97.2916 86.9825C94.1661 85.0242 93.6863 80.3056 96.2548 76.787Z" fill="#FCC6A0"/>
<path d="M100.901 26.1367H53.0884C47.7749 26.1367 43.4674 30.4116 43.4674 35.6849V146.098C43.4674 151.372 47.7749 155.647 53.0884 155.647H100.901C106.215 155.647 110.523 151.372 110.523 146.098V35.6849C110.523 30.4116 106.215 26.1367 100.901 26.1367Z" fill="#011721"/>
<path d="M104.61 201.119H37.1511V196.783C37.1511 195.317 37.7379 193.911 38.7823 192.875C39.8267 191.838 41.2432 191.256 42.7203 191.256H99.0447C100.522 191.256 101.938 191.838 102.983 192.875C104.027 193.911 104.614 195.317 104.614 196.783V201.119H104.61Z" fill="#05293C"/>
<path d="M78.5094 191.257H99.0415C99.7728 191.257 100.497 191.4 101.173 191.677C101.848 191.955 102.462 192.362 102.979 192.875C103.496 193.388 103.906 193.998 104.186 194.668C104.466 195.339 104.61 196.057 104.61 196.783V201.119H81.7041L78.5094 191.257Z" fill="#011721"/>
<path d="M100.187 29.6445H53.8015C49.9343 29.6445 46.7994 32.7557 46.7994 36.5936V145.19C46.7994 149.028 49.9343 152.14 53.8015 152.14H100.187C104.054 152.14 107.189 149.028 107.189 145.19V36.5936C107.189 32.7557 104.054 29.6445 100.187 29.6445Z" fill="#821605"/>
<path d="M100.094 113.672L117.193 105.92C117.987 105.56 118.697 105.04 119.278 104.392C119.858 103.745 120.297 102.984 120.565 102.16C120.833 101.335 120.925 100.464 120.835 99.6018C120.746 98.7398 120.476 97.9058 120.044 97.1528L118.521 94.5035C118.092 93.7574 117.513 93.1071 116.82 92.5933C116.127 92.0794 115.334 91.713 114.491 91.5171C113.649 91.3212 112.775 91.3 111.923 91.4547C111.072 91.6094 110.262 91.9368 109.545 92.4163L93.9684 102.82C92.6219 103.72 91.6783 105.102 91.3351 106.677C90.9919 108.252 91.2757 109.897 92.1271 111.269C92.9316 112.565 94.1853 113.524 95.6524 113.967C97.1195 114.409 98.699 114.304 100.094 113.672Z" fill="#ECAC80"/>
<path d="M120.042 97.152C120.474 97.9049 120.744 98.7389 120.833 99.601C120.923 100.463 120.831 101.334 120.563 102.159C120.295 102.984 119.856 103.744 119.276 104.391C118.695 105.039 117.985 105.559 117.191 105.919L100.092 113.671C98.6971 114.303 97.118 114.408 95.6512 113.965C94.1844 113.523 92.931 112.564 92.1266 111.268L119.458 96.1338L120.042 97.152Z" fill="#E7A374"/>
<path d="M92.859 112.229C93.7421 112.873 94.9066 113.075 95.9859 113.088C97.4635 113.104 98.9209 112.745 100.261 112.126L114.474 105.56C118.628 103.755 120.26 100.172 120.72 98.9121C121.027 100.305 120.844 101.759 120.202 103.034C119.56 104.309 118.497 105.328 117.191 105.921L100.092 113.673C98.8867 114.219 97.5385 114.374 96.2396 114.114C94.9407 113.855 93.7576 113.195 92.859 112.229Z" fill="#C18D68"/>
<path d="M104.07 125.767L116.236 121.914C117.1 121.64 117.897 121.186 118.572 120.584C119.246 119.981 119.784 119.243 120.15 118.418C120.516 117.594 120.7 116.701 120.692 115.8C120.684 114.899 120.483 114.011 120.102 113.193L119.029 110.888C118.659 110.093 118.127 109.382 117.467 108.801C116.807 108.219 116.033 107.78 115.193 107.509C114.354 107.238 113.467 107.143 112.588 107.229C111.71 107.314 110.859 107.579 110.089 108.007L98.9964 114.165C97.5608 114.962 96.489 116.276 96.0032 117.836C95.5173 119.395 95.6547 121.081 96.3868 122.542C97.0681 123.902 98.2174 124.975 99.6267 125.567C101.036 126.158 102.612 126.229 104.07 125.767Z" fill="#ECAC80"/>
<path d="M96.777 123.206L119.685 112.303L120.1 113.193C120.48 114.011 120.682 114.9 120.69 115.8C120.698 116.701 120.513 117.594 120.148 118.418C119.782 119.243 119.244 119.981 118.569 120.584C117.894 121.186 117.098 121.64 116.233 121.914L104.068 125.768C102.738 126.188 101.305 126.166 99.9888 125.704C98.6724 125.241 97.5444 124.364 96.777 123.206Z" fill="#E7A374"/>
<path d="M98.7135 125.089C100.47 125.361 102.817 124.759 102.817 124.759L115.594 120.369C119.261 119.242 120.437 114.412 120.474 114.256C120.89 115.829 120.682 117.5 119.893 118.926C119.104 120.351 117.794 121.422 116.233 121.917L104.068 125.771C103.18 126.052 102.24 126.137 101.315 126.019C100.39 125.901 99.5016 125.584 98.7135 125.089Z" fill="#C18D68"/>
<path d="M107.042 137.212L113.149 135.772C113.952 135.583 114.703 135.223 115.351 134.716C115.999 134.208 116.528 133.567 116.9 132.837C117.272 132.106 117.48 131.304 117.508 130.485C117.535 129.667 117.383 128.853 117.061 128.099L116.45 126.667C116.144 125.95 115.691 125.304 115.12 124.769C114.549 124.235 113.873 123.824 113.134 123.562C112.394 123.3 111.609 123.194 110.826 123.249C110.043 123.304 109.28 123.519 108.586 123.882L103.09 126.755C101.813 127.423 100.841 128.55 100.372 129.905C99.9027 131.26 99.9718 132.741 100.565 134.048C101.107 135.239 102.049 136.207 103.231 136.784C104.413 137.362 105.76 137.513 107.042 137.212Z" fill="#ECAC80"/>
<path d="M100.914 134.695L116.588 126.985L117.063 128.099C117.385 128.853 117.537 129.667 117.509 130.485C117.481 131.304 117.274 132.106 116.902 132.837C116.529 133.567 116.001 134.208 115.353 134.715C114.706 135.222 113.954 135.583 113.152 135.772L107.043 137.212C105.885 137.485 104.669 137.388 103.569 136.936C102.468 136.484 101.54 135.7 100.914 134.695Z" fill="#E7A374"/>
<path d="M106.123 135.71L112.734 133.751C115.732 132.672 117.073 130.061 117.418 129.274C117.682 130.694 117.386 132.16 116.592 133.369C115.798 134.578 114.566 135.439 113.151 135.773L107.043 137.213C106.196 137.412 105.314 137.414 104.466 137.219C103.617 137.024 102.826 136.637 102.153 136.089C103.99 136.268 106.123 135.71 106.123 135.71Z" fill="#C18D68"/>
<path d="M100.551 107.311C100.371 105.908 99.2338 104.653 99.2338 104.653C98.3406 103.364 96.2259 103.851 96.2259 103.851L91.9222 106.178C91.7974 107.448 91.7851 111.011 95.1747 113.007L99.1378 110.654C100.679 109.114 100.551 107.311 100.551 107.311Z" fill="#FCC6A0"/>
<path d="M96.0501 112.682C96.0845 112.682 96.1182 112.672 96.1475 112.654L98.791 111.069C100.606 109.98 101.296 107.714 100.362 105.909C100.132 105.47 99.856 105.058 99.5385 104.677C99.0683 104.1 98.4065 103.709 97.6718 103.573C96.937 103.436 96.1774 103.564 95.5292 103.934L92.7673 105.496C92.7268 105.522 92.6979 105.562 92.6866 105.609C92.6752 105.655 92.6822 105.704 92.7063 105.746C92.7303 105.788 92.7694 105.819 92.8156 105.832C92.8619 105.846 92.9117 105.842 92.9549 105.821L95.716 104.258C96.2871 103.933 96.9561 103.821 97.6032 103.941C98.2502 104.061 98.833 104.406 99.247 104.914C99.5471 105.274 99.8081 105.665 100.025 106.08C100.87 107.71 100.242 109.761 98.5969 110.748L95.9534 112.334C95.918 112.355 95.8906 112.387 95.8753 112.425C95.8599 112.463 95.8576 112.505 95.8685 112.544C95.8795 112.584 95.9032 112.619 95.936 112.643C95.9688 112.668 96.0089 112.682 96.0501 112.682Z" fill="white"/>
<path d="M96.7247 118.49L100.37 116.771C100.37 116.771 102.173 116.413 103.132 117.679C103.132 117.679 103.951 118.902 104.046 119.82C104.046 119.82 103.872 121.435 103.462 122.077C103.462 122.077 102.612 122.899 102.059 123.184L99.2535 124.586C99.2535 124.586 96.4267 122.24 96.7247 118.49Z" fill="#FCC6A0"/>
<path d="M99.8502 124.458C99.8754 124.456 99.8999 124.449 99.9223 124.437L102.326 123.207C103.985 122.356 104.728 120.403 104.014 118.761C103.838 118.363 103.62 117.985 103.365 117.632C102.984 117.097 102.425 116.714 101.786 116.55C101.147 116.387 100.47 116.454 99.8762 116.74L97.3712 117.944C97.3475 117.954 97.3261 117.968 97.3083 117.987C97.2906 118.005 97.2767 118.027 97.2676 118.05C97.2586 118.074 97.2545 118.1 97.2557 118.125C97.2568 118.151 97.2632 118.176 97.2744 118.198C97.2855 118.221 97.3013 118.242 97.3207 118.258C97.3401 118.275 97.3627 118.288 97.3871 118.295C97.4116 118.303 97.4374 118.306 97.4629 118.303C97.4884 118.301 97.5132 118.293 97.5357 118.281L100.04 117.077C100.553 116.829 101.139 116.771 101.691 116.912C102.244 117.054 102.728 117.386 103.056 117.849C103.297 118.18 103.501 118.536 103.665 118.91C104.302 120.372 103.636 122.113 102.15 122.874L99.747 124.105C99.7088 124.125 99.6787 124.158 99.6617 124.197C99.6447 124.237 99.6419 124.281 99.6536 124.322C99.6653 124.363 99.6909 124.399 99.7262 124.424C99.7614 124.449 99.8042 124.461 99.8473 124.458H99.8502Z" fill="white"/>
<path d="M100.624 130.674L103.956 129.275C103.956 129.275 105.486 128.846 106.403 130.08C106.403 130.08 107.312 131.504 107.04 132.683C107.04 132.683 107.001 133.68 105.67 134.597L102.872 135.957C102.872 135.957 100.37 134.386 100.624 130.674Z" fill="#FCC6A0"/>
<path d="M103.211 135.954C103.236 135.953 103.261 135.948 103.283 135.937L105.441 134.969C106.943 134.293 107.684 132.606 107.128 131.126C106.991 130.769 106.817 130.428 106.609 130.107C106.298 129.618 105.821 129.254 105.264 129.081C104.707 128.909 104.106 128.939 103.569 129.166L101.325 130.108C101.284 130.13 101.252 130.166 101.235 130.21C101.219 130.254 101.221 130.303 101.239 130.346C101.257 130.389 101.29 130.424 101.333 130.444C101.376 130.464 101.425 130.467 101.47 130.453L103.713 129.511C104.168 129.319 104.677 129.294 105.149 129.44C105.62 129.586 106.024 129.894 106.288 130.309C106.482 130.607 106.644 130.925 106.771 131.257C107.258 132.553 106.604 134.034 105.283 134.629L103.127 135.6C103.087 135.617 103.054 135.648 103.034 135.687C103.014 135.726 103.009 135.77 103.019 135.812C103.028 135.855 103.052 135.893 103.087 135.919C103.122 135.946 103.165 135.959 103.208 135.958L103.211 135.954Z" fill="white"/>
<path d="M29.8847 139.72L39.2128 97.377C39.2128 97.377 46.1802 98.4231 47.7307 105C49.2083 111.263 48.0482 117.781 47.1153 124.029C46.0713 131.021 44.9609 138.139 45.8996 145.208C45.9371 145.49 45.9777 145.771 46.0215 146.051C46.7719 150.857 48.5467 155.545 51.3814 159.527C54.3929 163.756 58.8387 166.297 62.2341 170.125C64.7103 172.906 66.5896 176.16 67.7571 179.686C68.9836 183.435 69.3653 187.341 69.4843 191.262H42.8946C37.1948 185.004 33.1148 177.432 30.7671 169.321C28.4576 161.337 27.2686 151.187 29.8847 139.72Z" fill="#ECAC80"/>
<path d="M30.7669 169.315C28.4581 161.337 27.2684 151.187 29.8845 139.72L39.2119 97.377C39.2119 97.377 42.2133 97.8395 44.7154 100.011L38.336 131.557C37.4611 135.854 36.9543 140.217 36.8209 144.598C36.4565 157.05 37.6318 180.48 50.3964 191.258H42.8944C37.1946 184.997 33.1146 177.429 30.7669 169.315Z" fill="#FCC6A0"/>
<path d="M39.0269 98.2148C39.0269 98.2148 41.783 98.8593 42.5456 99.6884L40.3862 107.555C40.3862 107.555 39.9627 109.253 38.6964 109.345C38.6964 109.345 37.1496 109.361 36.6373 109.063L39.0269 98.2148Z" fill="#FFD9C0"/>
<path d="M38.2044 109.55C39.7585 109.55 40.3378 108.383 40.3436 108.37L42.6776 99.9204C42.6909 99.8725 42.6844 99.8213 42.6597 99.778C42.6349 99.7348 42.5939 99.7031 42.5456 99.6899C42.5217 99.6832 42.4967 99.6812 42.4721 99.6842C42.4475 99.6872 42.4237 99.695 42.4021 99.7072C42.3805 99.7194 42.3616 99.7357 42.3465 99.7553C42.3314 99.7748 42.3203 99.7971 42.314 99.8209L39.9915 108.243C39.9771 108.263 39.3696 109.472 37.5839 109.115C37.5593 109.109 37.5337 109.109 37.5088 109.113C37.4839 109.117 37.4601 109.126 37.4389 109.14C37.4177 109.154 37.3995 109.172 37.3853 109.192C37.3711 109.213 37.3613 109.237 37.3565 109.261C37.3516 109.286 37.3518 109.311 37.3571 109.336C37.3623 109.36 37.3725 109.383 37.387 109.404C37.4015 109.425 37.42 109.442 37.4414 109.455C37.4629 109.469 37.4868 109.478 37.5118 109.482C37.7398 109.527 37.9718 109.55 38.2044 109.55Z" fill="white"/>
<path d="M113.078 2.62833L113.089 2.62117C113.11 2.60471 113.132 2.5868 113.154 2.57177L116.112 0.364258L116.595 3.00496C119.869 4.91604 124.026 10.2089 126.793 16.2937C127.122 17.0188 127.42 17.7272 127.686 18.4189C127.975 19.165 128.225 19.8862 128.437 20.5827C128.437 20.5934 128.443 20.6042 128.447 20.6149C128.689 21.4001 128.892 22.1969 129.054 23.0022C129.054 23.0136 129.059 23.0251 129.061 23.0365C129.088 23.1797 129.114 23.3191 129.138 23.4547C129.138 23.4704 129.143 23.4855 129.146 23.5012C129.238 24.0295 129.301 24.5623 129.336 25.0973C129.336 25.1159 129.336 25.1345 129.336 25.1531C129.336 25.1574 129.336 25.1617 129.336 25.1667L130.049 25.2934L130.818 27.0248C130.818 27.0248 127.21 28.7289 127.182 28.7368C127.13 28.7511 127.077 28.764 127.022 28.7741C126.991 28.7798 126.96 28.7855 126.927 28.7898C126.869 28.7984 126.808 28.8041 126.746 28.8077C126.717 28.8077 126.689 28.812 126.66 28.8127C126.568 28.8127 126.474 28.8127 126.376 28.8063C125.531 28.7382 124.554 28.295 123.509 27.5504C123.353 27.4394 123.195 27.3198 123.036 27.1923C122.826 27.0267 122.613 26.8501 122.397 26.6625C122.336 26.6095 122.275 26.5551 122.213 26.4992C121.755 26.0897 121.291 25.6307 120.824 25.1309C120.568 24.856 120.31 24.5683 120.053 24.2681C118.955 22.9886 118.316 22.0413 117.288 20.4016C117.116 20.128 116.948 19.8509 116.783 19.5702C116.578 19.228 116.377 18.8802 116.179 18.527C116.035 18.275 115.899 18.0193 115.762 17.7623C115.454 17.1895 115.156 16.6023 114.873 16.0073C114.763 15.7758 114.654 15.5431 114.547 15.3092C114.451 15.0987 114.358 14.8896 114.269 14.6819L114.188 14.4943C114.124 14.343 114.06 14.1931 113.998 14.0447C113.972 13.9802 113.945 13.9165 113.919 13.8528C113.843 13.6645 113.768 13.4776 113.695 13.2914C113.689 13.2764 113.682 13.2606 113.677 13.2449C113.6 13.0472 113.526 12.8515 113.455 12.6577C113.431 12.5933 113.409 12.5296 113.383 12.4651C113.333 12.3291 113.286 12.193 113.239 12.0584C113.216 11.9925 113.193 11.9267 113.171 11.8615C113.115 11.6968 113.061 11.5336 113.009 11.3717C113.001 11.3445 112.991 11.3173 112.983 11.2901C112.809 10.7431 112.659 10.2161 112.531 9.70339C111.653 6.192 111.833 3.57063 113.078 2.62833Z" fill="#FFB45A"/>
<path d="M115.785 9.18555L117.729 10.0992L121.629 17.3561C121.629 17.3561 125.851 20.8346 129.157 23.5498C129.245 24.063 129.306 24.5804 129.34 25.1C129.34 25.1186 129.34 25.1372 129.34 25.1558C129.34 25.1601 129.34 25.1644 129.34 25.1694L130.053 25.2961L130.822 27.0275C130.822 27.0275 127.214 28.7316 127.186 28.7395C127.134 28.7538 127.081 28.7667 127.026 28.7768C126.995 28.7825 126.964 28.7882 126.932 28.7925C126.873 28.8011 126.812 28.8068 126.75 28.8104C126.722 28.8104 126.694 28.8147 126.664 28.8154C126.572 28.8154 126.479 28.8154 126.38 28.809C125.536 28.7409 124.558 28.2977 123.513 27.5531C123.357 27.4421 123.199 27.3225 123.041 27.195C122.83 27.0294 122.617 26.8528 122.401 26.6652C122.34 26.6122 122.279 26.5578 122.217 26.5019C121.759 26.0924 121.295 25.6334 120.829 25.1336C120.572 24.8587 120.315 24.571 120.057 24.2708C118.959 22.9913 118.321 22.044 117.292 20.4043C117.12 20.1307 116.952 19.8536 116.787 19.5729C116.582 19.2307 116.381 18.8829 116.184 18.5297C116.039 18.2777 115.903 18.022 115.766 17.765C115.459 17.1922 115.161 16.605 114.877 16.01C114.767 15.7785 114.658 15.5458 114.552 15.3119C114.455 15.1014 114.363 14.8923 114.273 14.6846L114.192 14.497C114.128 14.3457 114.065 14.1958 114.003 14.0474C113.976 13.9829 113.949 13.9192 113.923 13.8555C113.847 13.6672 113.772 13.4803 113.7 13.2941C113.693 13.2791 113.687 13.2633 113.681 13.2476C113.604 13.0499 113.53 12.8542 113.459 12.6604C113.435 12.596 113.413 12.5323 113.387 12.4678C113.337 12.3318 113.29 12.1957 113.243 12.0611C113.22 11.9952 113.197 11.9294 113.175 11.8642C113.119 11.6995 113.065 11.5363 113.013 11.3744C113.005 11.3472 112.995 11.32 112.987 11.2928C112.959 11.2047 112.935 11.121 112.909 11.0336L115.785 9.18555Z" fill="#FFA13B"/>
<path d="M130.836 27.0297C133.383 25.6436 132.151 18.5538 128.084 11.1944C124.018 3.83492 118.656 -1.00738 116.109 0.378788C113.562 1.76496 114.794 8.85469 118.861 16.2141C122.928 23.5736 128.289 28.4159 130.836 27.0297Z" fill="#FFC88D"/>
<path d="M129.044 25.9486C127.566 25.8305 125.596 24.445 123.497 22.047C121.398 19.649 119.422 16.5257 117.933 13.2528C114.858 6.49633 114.84 1.20132 117.892 1.43832C120.944 1.67532 125.93 7.38134 129.003 14.1342C130.493 17.4071 131.317 20.4352 131.325 22.6692C131.331 24.5395 130.763 25.6586 129.708 25.9028C129.49 25.9515 129.267 25.967 129.044 25.9486ZM118.122 13.2685C119.561 16.4283 121.469 19.445 123.496 21.7599C125.523 24.0748 127.425 25.4116 128.853 25.5276C130.281 25.6436 131.063 24.5187 131.056 22.3642C131.049 20.2097 130.252 17.2804 128.814 14.122C125.845 7.5983 121.031 2.0985 118.083 1.86006C117.871 1.84101 117.657 1.85478 117.449 1.90087C115.156 2.43288 115.385 7.25174 118.122 13.2685Z" fill="#FFF1E6"/>
<path d="M125.181 16.4666C124.94 15.9683 124.724 15.6129 124.531 15.4005C124.356 15.1988 124.129 15.0477 123.874 14.963C123.477 14.9104 123.097 14.7659 122.766 14.5412C122.424 14.283 122.127 13.9713 121.886 13.6183C121.536 13.1103 121.23 12.5737 120.971 12.0144C120.493 11.0186 120.171 10.0933 120.005 9.23833C119.84 8.3834 119.849 7.72871 120.032 7.27427L119.107 5.34887L119.468 4.84766L120.419 6.80527C120.742 6.64727 121.148 6.84442 121.636 7.39671C122.124 7.94901 122.64 8.79249 123.185 9.92715L122.507 10.868C122.16 10.1477 121.875 9.64885 121.65 9.37151C121.424 9.09417 121.268 9.01636 121.18 9.13809C121.095 9.25552 121.095 9.48536 121.18 9.82762C121.299 10.2595 121.46 10.6788 121.662 11.0792C121.866 11.5055 122.061 11.8251 122.246 12.038C122.438 12.256 122.68 12.4242 122.953 12.5278C123.427 12.6294 123.812 12.7896 124.107 13.0082C124.442 13.2706 124.734 13.5832 124.973 13.9348C125.312 14.433 125.61 14.958 125.863 15.5043C126.35 16.5182 126.675 17.4423 126.837 18.2767C126.999 19.1111 126.984 19.7661 126.793 20.2415L127.654 22.0316L127.293 22.5328L126.433 20.7427C126.085 20.9757 125.659 20.8289 125.155 20.3024C124.652 19.7759 124.106 18.9006 123.518 17.6767L124.196 16.7358C124.536 17.4442 124.828 17.9466 125.072 18.2431C125.316 18.5395 125.499 18.6037 125.62 18.4357C125.716 18.3001 125.727 18.0579 125.652 17.7089C125.543 17.2785 125.385 16.8617 125.181 16.4666Z" fill="#FFF1E6"/>
<g style="mix-blend-mode:multiply" opacity="0.28">
<path d="M115.785 9.18567L131.081 17.9727C132.899 23.5427 132.423 27.468 129.638 27.2453C126.257 26.9754 120.756 20.6894 117.35 13.2062C116.749 11.8977 116.227 10.5552 115.785 9.18567Z" fill="#FFB45A"/>
</g>
<g style="mix-blend-mode:multiply" opacity="0.28">
<path d="M130.749 17.017L115.508 8.25354C115.446 8.03157 115.387 7.81246 115.333 7.59766L130.484 16.3096C130.577 16.5478 130.665 16.7836 130.749 17.017Z" fill="#FFB45A"/>
</g>
<path d="M115.507 8.25451L112.683 10.263L112.502 9.57057L115.333 7.59863L115.507 8.25451Z" fill="#FFA13B"/>
<path d="M37.4709 74.2282L37.4601 74.2203C37.4377 74.2045 37.4154 74.1881 37.3923 74.1737L34.3534 72.0801L33.9681 74.7387C30.7705 76.7722 26.8218 82.2183 24.2886 88.4026C23.987 89.1401 23.7165 89.8595 23.4769 90.5607C23.2177 91.3173 22.9952 92.0477 22.8096 92.7518L22.8009 92.784C22.5886 93.5778 22.4167 94.3817 22.2858 95.1927C22.2858 95.2049 22.2858 95.2163 22.28 95.2278C22.2583 95.371 22.2374 95.5099 22.2194 95.6481L22.2129 95.6954C22.1417 96.2267 22.0988 96.7613 22.0845 97.2971C22.0845 97.3157 22.0845 97.3351 22.0845 97.353V97.3666C21.6667 97.4568 21.3774 97.5205 21.3774 97.5205L20.6754 99.2798C20.6754 99.2798 24.3434 100.846 24.3737 100.855C24.4264 100.868 24.4805 100.878 24.5354 100.887L24.6299 100.899C24.689 100.904 24.7504 100.908 24.8124 100.909C24.8413 100.909 24.8694 100.909 24.8983 100.909C24.9928 100.908 25.0872 100.902 25.1811 100.892C26.0231 100.792 26.9848 100.312 27.9985 99.5311C28.15 99.4137 28.303 99.2884 28.4567 99.1581C28.6616 98.9848 28.8679 98.8003 29.0757 98.6046C29.1349 98.5487 29.194 98.4922 29.2539 98.4342C29.6947 98.0045 30.1413 97.5312 30.5887 97.0143C30.8349 96.7279 31.0807 96.4307 31.326 96.1228C32.3736 94.8032 32.9761 93.8315 33.9414 92.156C34.1025 91.8763 34.2613 91.593 34.4176 91.3061C34.61 90.9557 34.7976 90.6006 34.9803 90.2407C35.1117 89.9829 35.241 89.723 35.3685 89.4609C35.6528 88.8745 35.9284 88.2788 36.1888 87.6708C36.2908 87.436 36.3904 87.1995 36.4875 86.9613C36.5746 86.7474 36.6593 86.535 36.7415 86.324C36.7668 86.2603 36.7906 86.1973 36.8137 86.1335C36.8719 85.9803 36.9293 85.828 36.9861 85.6767C37.0099 85.6115 37.0344 85.5471 37.0582 85.4827C37.1304 85.2915 37.196 85.101 37.261 84.9098C37.266 84.8941 37.2725 84.8783 37.2776 84.8626C37.3497 84.6621 37.4125 84.4645 37.476 84.2676C37.4976 84.2024 37.5178 84.1373 37.538 84.0728C37.582 83.9346 37.6253 83.7971 37.6665 83.6604L37.7271 83.4613C37.7761 83.2945 37.8237 83.1298 37.8714 82.9658C37.8786 82.9386 37.8872 82.9107 37.8944 82.8835C38.0474 82.3307 38.1758 81.7973 38.2848 81.281C39.0315 77.736 38.7516 75.1225 37.4709 74.2282Z" fill="#FFB45A"/>
<path d="M35.0171 80.8818L33.1102 81.8678L29.4919 89.2665C29.4919 89.2665 25.4069 92.9025 22.2049 95.7408C22.1366 96.257 22.0954 96.7763 22.0815 97.2967C22.0815 97.3154 22.0815 97.3347 22.0815 97.3526V97.3662C21.6638 97.4564 21.3745 97.5201 21.3745 97.5201L20.6725 99.2794C20.6725 99.2794 24.3405 100.846 24.3708 100.855C24.4235 100.868 24.4776 100.878 24.5324 100.886L24.6269 100.898C24.6861 100.904 24.7474 100.908 24.8095 100.909C24.8383 100.909 24.8665 100.909 24.8953 100.909C24.9899 100.908 25.0843 100.902 25.1782 100.891C26.0201 100.792 26.9819 100.311 27.9956 99.5307C28.1471 99.4133 28.3 99.288 28.4537 99.1577C28.6586 98.9844 28.865 98.7999 29.0728 98.6042C29.1319 98.5484 29.1911 98.4918 29.251 98.4338C29.6918 98.0042 30.1384 97.5309 30.5857 97.0139C30.832 96.7275 31.0778 96.4304 31.3231 96.1225C32.3707 94.8028 32.9731 93.8312 33.9385 92.1557C34.0996 91.8759 34.2583 91.5926 34.4147 91.3057C34.6071 90.9554 34.7946 90.6002 34.9774 90.2403C35.1087 89.9825 35.2381 89.7226 35.3656 89.4605C35.6498 88.8741 35.9255 88.2784 36.1859 87.6705C36.2879 87.4356 36.3874 87.1991 36.4846 86.9609C36.5717 86.7471 36.6563 86.5346 36.7386 86.3236C36.7638 86.2599 36.7876 86.1969 36.8107 86.1332C36.8689 85.9799 36.9264 85.8277 36.9832 85.6763C37.007 85.6112 37.0315 85.5467 37.0553 85.4823C37.1275 85.2911 37.1931 85.1007 37.258 84.9095C37.2631 84.8937 37.2696 84.878 37.2746 84.8622C37.3468 84.6617 37.4096 84.4641 37.473 84.2672C37.4947 84.2021 37.5149 84.1369 37.5351 84.0724C37.5791 83.9343 37.6224 83.7968 37.6635 83.66L37.7241 83.461C37.7732 83.2941 37.8208 83.1294 37.8684 82.9655C37.8756 82.9383 37.8843 82.9103 37.8915 82.8831C37.916 82.7951 37.9362 82.7099 37.9593 82.6218L35.0171 80.8818Z" fill="#FFA13B"/>
<path d="M32.217 88.0116C35.9986 80.504 36.9579 73.3729 34.3596 72.0839C31.7613 70.7948 26.5894 75.836 22.8078 83.3437C19.0262 90.8513 18.0669 97.9825 20.6651 99.2715C23.2634 100.56 28.4353 95.5193 32.217 88.0116Z" fill="#FFC88D"/>
<path d="M21.7457 98.1179C20.6822 97.9138 20.0711 96.8169 20.0054 94.948C19.9275 92.7176 20.6353 89.658 21.9975 86.3314C24.8113 79.464 29.5731 73.5861 32.6142 73.2245C35.6552 72.8629 35.8399 78.1601 33.0269 85.0282C31.6647 88.3549 29.8097 91.5505 27.8047 94.0258C25.7997 96.5011 23.8842 97.9639 22.4109 98.1351C22.1896 98.1631 21.9652 98.1573 21.7457 98.1179ZM33.073 73.6684C32.8633 73.6299 32.6488 73.6244 32.4374 73.652C29.5009 73.9985 24.9014 79.6766 22.1858 86.3085C20.8698 89.5213 20.1865 92.4763 20.2616 94.6294C20.3366 96.7825 21.1627 97.8744 22.5848 97.7083C24.0068 97.5422 25.8567 96.1331 27.7932 93.7401C29.7296 91.3471 31.5204 88.2639 32.8364 85.0511C35.3428 78.9348 35.3854 74.1074 33.0745 73.6684H33.073Z" fill="#FFF1E6"/>
<path d="M26.6432 88.8311C26.8703 88.3275 27.003 87.9342 27.0415 87.6511C27.0822 87.3877 27.0513 87.1182 26.952 86.8706C26.7346 86.5363 26.5997 86.1558 26.5581 85.7601C26.5351 85.3341 26.5819 84.9073 26.6966 84.4963C26.8599 83.9028 27.0735 83.3241 27.3352 82.7664C27.7897 81.7596 28.2914 80.9166 28.8402 80.2374C29.389 79.5581 29.8974 79.1409 30.3654 78.9857L31.2442 77.0389L31.8639 76.9873L30.9678 78.9707C31.2988 79.1139 31.4101 79.5485 31.3019 80.2746C31.1937 81.0006 30.881 81.9374 30.364 83.085L29.2024 83.1809C29.5304 82.4525 29.7283 81.9136 29.7961 81.5642C29.864 81.2147 29.8224 81.046 29.6713 81.0579C29.527 81.0703 29.3505 81.2193 29.1418 81.5047C28.8866 81.8738 28.6691 82.2672 28.4924 82.679C28.3 83.1086 28.181 83.4631 28.1353 83.7423C28.0921 84.0284 28.1201 84.3207 28.2168 84.5937C28.4462 85.0185 28.5718 85.4123 28.5934 85.7751C28.6087 86.1979 28.5573 86.6204 28.4412 87.0274C28.2783 87.6067 28.0681 88.1718 27.8128 88.7173C27.3496 89.7417 26.8506 90.5856 26.3157 91.2491C25.7808 91.9126 25.2683 92.326 24.7782 92.4893L23.9608 94.2994L23.3453 94.3502L24.1628 92.5401C23.7578 92.4275 23.5945 92.0103 23.6729 91.2885C23.7513 90.5667 24.0697 89.5882 24.6281 88.3528L25.7897 88.2568C25.4665 88.9729 25.27 89.519 25.2003 89.8951C25.1305 90.2713 25.1995 90.451 25.4073 90.4343C25.5742 90.4204 25.7666 90.2715 25.9845 89.9875C26.2474 89.6279 26.4683 89.24 26.6432 88.8311Z" fill="#FFF1E6"/>
<g style="mix-blend-mode:multiply" opacity="0.28">
<path d="M35.0178 80.8818L20.0743 90.241C18.4733 95.8733 19.0982 99.7799 21.8716 99.4534C25.2395 99.0553 30.4955 92.566 33.6116 84.9596C34.1609 83.629 34.6304 82.2674 35.0178 80.8818Z" fill="#FFB45A"/>
</g>
<g style="mix-blend-mode:multiply" opacity="0.28">
<path d="M20.3662 89.274L35.2592 79.9406C35.3133 79.7165 35.3631 79.4953 35.4092 79.2783L20.6029 88.5566C20.5201 88.7986 20.4412 89.0378 20.3662 89.274Z" fill="#FFB45A"/>
</g>
<path d="M35.2594 79.9406L38.159 81.841L38.3134 81.1414L35.4095 79.2783L35.2594 79.9406Z" fill="#FFA13B"/>
<path d="M95.5393 98.1012C104.96 88.752 104.96 73.5938 95.5393 64.2445C86.1187 54.8952 70.8449 54.8952 61.4243 64.2445C52.0037 73.5938 52.0037 88.7519 61.4243 98.1012C70.8449 107.451 86.1187 107.451 95.5393 98.1012Z" fill="#891818"/>
<g opacity="0.1">
<path d="M109.48 31.3952C107.893 28.2855 104.64 26.1367 100.902 26.1367H53.0898C47.7977 26.1367 43.4688 30.4329 43.4688 35.6849V83.7017L109.48 31.3952Z" fill="white"/>
</g>
<path d="M81.7792 134.024C84.4224 131.401 84.4224 127.148 81.7792 124.525C79.136 121.902 74.8506 121.902 72.2074 124.525C69.5642 127.148 69.5642 131.401 72.2074 134.024C74.8506 136.647 79.136 136.647 81.7792 134.024Z" fill="white"/>
<path d="M81.1459 126.506C80.9208 126.296 80.6209 126.182 80.3117 126.19C80.0024 126.198 79.7089 126.327 79.4951 126.549L76.6091 129.563L74.7686 127.829C74.5441 127.617 74.244 127.503 73.9345 127.511C73.625 127.519 73.3314 127.649 73.1182 127.871C72.905 128.094 72.7898 128.392 72.7979 128.699C72.8059 129.006 72.9366 129.298 73.1611 129.509L75.848 132.041C76.0728 132.252 76.3726 132.366 76.6818 132.358C76.991 132.35 77.2844 132.221 77.498 131.999L81.1862 128.145C81.3988 127.922 81.5138 127.624 81.5063 127.317C81.4987 127.01 81.3691 126.719 81.1459 126.506Z" fill="#A02724"/>
<path d="M95.2673 97.7353C103.487 89.5778 103.487 76.3519 95.2673 68.1943C87.0475 60.0368 73.7207 60.0368 65.5009 68.1943C57.2812 76.3519 57.2812 89.5778 65.5009 97.7353C73.7207 105.893 87.0475 105.893 95.2673 97.7353Z" fill="#5B0707"/>
<path d="M93.3669 95.9434C101.587 87.7858 101.587 74.5599 93.3669 66.4024C85.1471 58.2448 71.8203 58.2448 63.6006 66.4024C55.3808 74.5599 55.3808 87.7858 63.6006 95.9434C71.8203 104.101 85.1471 104.101 93.3669 95.9434Z" fill="#FFB45A"/>
<path d="M76.5441 99.9656C71.9421 99.4978 67.6692 97.383 64.5238 94.0165C61.3784 90.6499 59.5758 86.262 59.4528 81.6725C59.1743 71.2615 67.4829 62.5654 77.9734 62.289C88.4638 62.0126 97.227 70.2591 97.5048 80.6708C97.5712 83.1504 97.1447 85.6188 96.2498 87.9348C95.3549 90.2509 94.0091 92.3694 92.2892 94.1692C90.5694 95.9691 88.5091 97.4152 86.2261 98.4248C83.9431 99.4345 81.482 99.9879 78.9835 100.054C78.1693 100.075 77.3546 100.046 76.5441 99.9656ZM80.3269 63.0186C79.5521 62.9428 78.7733 62.9155 77.995 62.937C67.8632 63.2041 59.8402 71.6009 60.1093 81.6546C60.2385 86.4906 62.2981 91.0775 65.835 94.4064C69.372 97.7353 74.0966 99.5335 78.9694 99.4053C83.8422 99.2771 88.4642 97.2331 91.8185 93.7229C95.1728 90.2128 96.9846 85.524 96.8555 80.688C96.6094 71.4169 89.3945 63.9237 80.3269 63.0215V63.0186Z" fill="#FFDFC2"/>
<path d="M80.5943 86.0491C80.5736 85.2744 80.3973 84.6672 80.0654 84.2275C79.7335 83.7879 79.1955 83.3822 78.4514 83.0103C76.9955 82.4141 75.9132 81.8331 75.2047 81.2675C74.5297 80.7419 73.9833 80.0714 73.6066 79.3063C73.2478 78.5631 73.0554 77.6735 73.0294 76.6377C72.9881 75.0882 73.3866 73.7958 74.225 72.7604C75.0633 71.725 76.19 71.0951 77.6051 70.8708L77.525 67.8742L79.6556 67.8184L79.7371 70.8708C81.1556 71.1042 82.2727 71.7847 83.0884 72.9122C83.9042 74.0397 84.3371 75.4856 84.3871 77.2499L80.3937 77.3551C80.3643 76.2348 80.1799 75.4035 79.8403 74.8612C79.5007 74.3189 79.0724 74.0547 78.5553 74.0686C78.0565 74.0814 77.6717 74.3065 77.4009 74.7438C77.1301 75.181 77.0051 75.782 77.0258 76.5467C77.0431 77.2098 77.2035 77.7568 77.507 78.1879C77.8105 78.6189 78.3778 79.0617 79.209 79.5161C80.7328 80.1844 81.834 80.8021 82.5127 81.3692C83.1605 81.8964 83.6822 82.56 84.0401 83.3117C84.3768 84.0407 84.5598 84.9092 84.5891 85.9174C84.6315 87.4955 84.245 88.7901 83.4297 89.8011C82.6144 90.8121 81.4663 91.4355 79.9853 91.6714L80.0575 94.4574L77.9413 94.5133L77.8692 91.7272C76.2338 91.5363 74.9592 90.8809 74.0453 89.761C73.1314 88.6411 72.6487 87.1289 72.5973 85.2243L76.59 85.119C76.6193 86.2212 76.8206 87.0637 77.1939 87.6466C77.5671 88.2294 78.1111 88.5118 78.8259 88.4936C79.3992 88.4779 79.8427 88.2535 80.1563 87.8206C80.4699 87.3876 80.6159 86.7971 80.5943 86.0491Z" fill="#FFDFC2"/>
<g style="mix-blend-mode:multiply" opacity="0.28">
<path d="M98.404 74.415L58.4473 87.5727C61.2351 96.1794 69.4738 102.306 79.0407 102.054C90.661 101.748 99.8311 92.151 99.523 80.6187C99.4685 78.5065 99.0912 76.4148 98.404 74.415Z" fill="#FFB45A"/>
</g>
<g style="mix-blend-mode:multiply" opacity="0.28">
<path d="M58.028 86.0957L97.8411 72.9731C97.693 72.6294 97.5364 72.2907 97.3714 71.957L57.7949 85.003C57.8618 85.3711 57.9395 85.7353 58.028 86.0957Z" fill="#FFB45A"/>
</g>
<path d="M135.255 87.1198C138.905 83.4972 138.905 77.6239 135.255 74.0013C131.605 70.3788 125.687 70.3788 122.037 74.0013C118.386 77.6239 118.386 83.4972 122.037 87.1198C125.687 90.7423 131.605 90.7423 135.255 87.1198Z" fill="#FFB45A"/>
<path d="M125.344 88.2846C123.321 87.4294 121.713 85.8269 120.859 83.8161C120.006 81.8052 119.974 79.5437 120.77 77.5099C121.566 75.476 123.129 73.8294 125.126 72.9182C127.124 72.007 129.401 71.9027 131.475 72.6274C133.548 73.3521 135.257 74.8489 136.239 76.8013C137.22 78.7537 137.398 81.0085 136.735 83.0889C136.072 85.1692 134.619 86.9119 132.684 87.9484C130.75 88.9849 128.485 89.2338 126.368 88.6426C126.019 88.5445 125.677 88.425 125.344 88.2846ZM131.819 73.0977C130.751 72.6504 129.599 72.4339 128.44 72.4626C127.282 72.4913 126.142 72.7645 125.098 73.264C124.054 73.7635 123.129 74.478 122.384 75.3598C121.64 76.2416 121.093 77.2706 120.78 78.3784C120.491 79.4033 120.409 80.4747 120.537 81.5312C120.666 82.5878 121.003 83.6089 121.529 84.5363C122.055 85.4636 122.76 86.2791 123.604 86.936C124.447 87.593 125.413 88.0786 126.446 88.3652C128.531 88.9439 130.763 88.6767 132.651 87.6222C133.585 87.1001 134.407 86.4005 135.069 85.5632C135.731 84.726 136.22 83.7675 136.509 82.7426C137.041 80.8439 136.858 78.818 135.995 77.0432C135.132 75.2683 133.648 73.8659 131.819 73.0977Z" fill="#FFDFC2"/>
<path d="M128.895 82.9029C128.989 82.5716 128.994 82.2909 128.911 82.0608C128.829 81.831 128.653 81.589 128.387 81.3341C127.848 80.8916 127.466 80.5044 127.24 80.1727C127.023 79.8619 126.88 79.5065 126.821 79.133C126.77 78.7277 126.806 78.3163 126.927 77.9258C127.113 77.2627 127.453 76.7658 127.945 76.435C128.438 76.1042 128.999 75.9834 129.629 76.0727L129.989 74.791L130.901 75.0438L130.533 76.3498C130.804 76.4771 131.047 76.6582 131.246 76.8821C131.444 77.106 131.594 77.3678 131.687 77.6515C131.885 78.2358 131.877 78.9041 131.665 79.6564L129.956 79.1824C130.091 78.7051 130.122 78.3284 130.05 78.0525C129.978 77.7766 129.831 77.6095 129.61 77.5513C129.51 77.5215 129.404 77.5184 129.303 77.5423C129.202 77.5662 129.108 77.6162 129.033 77.6873C128.861 77.8377 128.728 78.0764 128.636 78.4034C128.556 78.6496 128.552 78.9137 128.624 79.1624C128.696 79.3843 128.878 79.6469 129.171 79.95C129.729 80.4321 130.114 80.8379 130.325 81.1672C130.531 81.475 130.665 81.8242 130.717 82.1897C130.761 82.5855 130.724 82.986 130.607 83.3669C130.415 84.0423 130.08 84.5414 129.602 84.8641C129.124 85.1868 128.555 85.3023 127.894 85.2106L127.562 86.4007L126.656 86.1493L126.992 84.9572C126.324 84.6645 125.87 84.2208 125.629 83.6261C125.389 83.0313 125.384 82.327 125.614 81.5131L127.321 81.9871C127.189 82.4582 127.163 82.8418 127.244 83.1377C127.278 83.2774 127.35 83.405 127.453 83.5061C127.556 83.6073 127.685 83.6781 127.826 83.7106C127.936 83.7461 128.052 83.7544 128.166 83.7348C128.28 83.7152 128.387 83.6683 128.479 83.5981C128.666 83.454 128.805 83.2222 128.895 82.9029Z" fill="#FFDFC2"/>
<g style="mix-blend-mode:multiply" opacity="0.28">
<path d="M137.99 80.2803L119.299 80.6727C119.313 81.8984 119.572 83.1093 120.06 84.2352C120.549 85.3611 121.257 86.3798 122.145 87.2324C123.033 88.0849 124.082 88.7545 125.232 89.2023C126.381 89.6501 127.609 89.8673 128.844 89.8414C130.079 89.8155 131.297 89.5469 132.426 89.0512C133.556 88.5556 134.576 87.8426 135.426 86.9536C136.277 86.0645 136.941 85.017 137.381 83.8716C137.821 82.7262 138.028 81.5056 137.99 80.2803Z" fill="#FFB45A"/>
</g>
<g style="mix-blend-mode:multiply" opacity="0.28">
<path d="M119.316 79.9924L137.942 79.5964C137.925 79.4317 137.903 79.2677 137.877 79.1045L119.36 79.4983C119.341 79.663 119.327 79.8277 119.316 79.9924Z" fill="#FFB45A"/>
</g>
<path d="M83.5258 20.1031C88.1596 15.5044 88.1596 8.04836 83.5258 3.44964C78.892 -1.14909 71.3791 -1.14909 66.7453 3.44964C62.1115 8.04837 62.1115 15.5044 66.7453 20.1031C71.3791 24.7018 78.892 24.7018 83.5258 20.1031Z" fill="#FFB45A"/>
<path d="M79.1581 21.65C76.7402 22.619 74.0495 22.6815 71.5886 21.8257C69.1277 20.9699 67.0648 19.2543 65.7853 16.9994C62.8835 11.8841 64.7168 5.37683 69.8725 2.49625C75.0283 -0.384321 81.5837 1.43582 84.4855 6.55254C85.1767 7.77107 85.6193 9.11278 85.788 10.5011C85.9567 11.8894 85.8483 13.297 85.4688 14.6437C85.0893 15.9904 84.4463 17.2497 83.5764 18.3497C82.7065 19.4498 81.6269 20.369 80.399 21.0549C79.9984 21.2789 79.5839 21.4777 79.1581 21.65ZM71.2383 2.24564C70.8316 2.41015 70.4357 2.59979 70.0529 2.81345C65.0746 5.5945 63.3041 11.8776 66.1063 16.8182C66.7658 18.0096 67.6567 19.0593 68.7275 19.9068C69.7983 20.7543 71.0278 21.3826 72.3449 21.7556C73.6619 22.1285 75.0404 22.2386 76.4006 22.0794C77.7608 21.9203 79.0757 21.4951 80.2693 20.8285C81.4629 20.1618 82.5115 19.267 83.3544 18.1956C84.1972 17.1242 84.8177 15.8977 85.18 14.5868C85.5422 13.2759 85.639 11.9068 85.4646 10.5586C85.2903 9.21043 84.8484 7.9099 84.1645 6.73227C81.5808 2.17547 75.9965 0.326693 71.2383 2.24708V2.24564Z" fill="#FFDFC2"/>
<path d="M77.4786 13.656C77.2631 13.2741 77.0142 13.0175 76.7318 12.8862C76.4495 12.755 76.0736 12.6931 75.6042 12.7008C74.7196 12.7838 74.0263 12.7769 73.5241 12.68C73.048 12.5944 72.5976 12.403 72.2067 12.1201C71.8329 11.8442 71.5018 11.4515 71.2132 10.9422C70.7803 10.1784 70.636 9.42996 70.7803 8.69675C70.9246 7.96354 71.3178 7.35539 71.9599 6.87231L71.1244 5.39945L72.1713 4.81445L73.0227 6.31453C73.3818 6.18759 73.7632 6.13481 74.1436 6.15944C74.524 6.18406 74.8953 6.28557 75.2348 6.45773C75.9404 6.8062 76.5392 7.41411 77.0313 8.28145L75.0688 9.37841C74.7571 8.82754 74.4445 8.46142 74.1309 8.28002C73.8173 8.09863 73.5337 8.07882 73.2803 8.22059C73.1633 8.28276 73.0651 8.37453 72.9955 8.48659C72.926 8.59865 72.8875 8.72699 72.8842 8.85857C72.8654 9.14498 72.9628 9.47746 73.1764 9.856C73.3611 10.182 73.5862 10.4126 73.8517 10.5477C74.1172 10.6828 74.5174 10.7544 75.0522 10.7625C75.9897 10.698 76.7025 10.7183 77.1907 10.8233C77.6536 10.9166 78.0898 11.1107 78.4678 11.3919C78.8652 11.7078 79.1936 12.1008 79.4331 12.5468C79.8723 13.322 80.023 14.0684 79.8855 14.7858C79.7479 15.5033 79.3412 16.1141 78.6654 16.6182L79.4418 17.9879L78.4021 18.5686L77.6258 17.1996C76.76 17.5308 75.951 17.5373 75.1987 17.2189C74.4464 16.9005 73.8043 16.2728 73.2723 15.3357L75.2348 14.2402C75.5421 14.7815 75.8661 15.1486 76.2066 15.3415C76.3631 15.4363 76.543 15.4861 76.7263 15.4854C76.9097 15.4846 77.0892 15.4333 77.2448 15.3372C77.3756 15.2711 77.4881 15.1744 77.5726 15.0553C77.6572 14.9363 77.7111 14.7985 77.7297 14.6541C77.7701 14.3557 77.6864 14.023 77.4786 13.656Z" fill="#FFDFC2"/>
<g style="mix-blend-mode:multiply" opacity="0.28">
<path d="M83.271 3.20032L66.8477 20.2031C67.9688 21.2924 69.2964 22.1502 70.7537 22.727C72.2111 23.3037 73.7691 23.588 75.3379 23.5633C76.9066 23.5386 78.4548 23.2054 79.893 22.5831C81.3311 21.9607 82.6306 21.0615 83.7163 19.9375C84.802 18.8135 85.6524 17.4869 86.2181 16.0347C86.7839 14.5824 87.0539 13.0332 87.0125 11.4767C86.9711 9.92018 86.6191 8.38727 85.9769 6.96665C85.3346 5.54603 84.4149 4.2659 83.271 3.20032Z" fill="#FFB45A"/>
</g>
<g style="mix-blend-mode:multiply" opacity="0.28">
<path d="M66.2465 19.5792L82.6077 2.63086C82.4432 2.49816 82.2749 2.37023 82.1027 2.24707L65.8389 19.0959C65.9709 19.2606 66.1073 19.4217 66.2465 19.5792Z" fill="#FFB45A"/>
</g>
<path d="M110.989 245.076L174.552 222.647L173.088 218.561C172.593 217.18 171.565 216.051 170.231 215.421C168.897 214.792 167.366 214.714 165.974 215.205L112.907 233.931C111.515 234.423 110.377 235.442 109.743 236.766C109.109 238.09 109.031 239.609 109.525 240.991L110.989 245.076Z" fill="#05293C"/>
<path d="M146.63 222.032L165.976 215.205C167.367 214.714 168.898 214.792 170.232 215.421C171.566 216.051 172.594 217.18 173.089 218.561L174.553 222.647L152.97 230.262L146.63 222.032Z" fill="#011721"/>
<path d="M75.8846 87.8474C77.026 85.9241 78.7223 84.3775 81.7785 84.4147C84.2085 84.4448 86.3917 85.9957 87.3491 88.2097C95.52 107.13 100.929 121.488 108.842 141.097C108.842 141.097 115.953 133.252 123.509 141.462C123.509 141.462 130.177 134.345 136.776 142.532C136.776 142.532 141.206 139.792 145.016 144.742L158.219 161.009C158.219 161.009 160.894 165.641 160.625 175.213L161.811 216.617L117.812 232.198C117.812 232.198 99.2703 216.853 86.0598 200.903C86.0598 200.903 80.8204 195.002 81.6255 185.594L84.5836 171.998C84.5836 171.998 85.738 160.065 92.7365 158.129L75.6581 93.8813C74.889 91.464 74.9749 89.3804 75.8846 87.8474Z" fill="#E7A374"/>
<path d="M99.8559 159.875L76.9847 86.3615C76.5633 86.8161 76.1925 87.3145 75.8787 87.8479C74.9689 89.3809 74.883 91.4646 75.6463 93.8847L92.7247 158.132C85.7262 160.066 84.5719 172.002 84.5719 172.002L81.6138 185.597C80.8086 195.006 86.048 200.906 86.048 200.906C99.2578 216.857 117.801 232.201 117.801 232.201L126.91 228.975C116.657 209.47 99.8559 159.875 99.8559 159.875Z" fill="#ECAC80"/>
<path d="M161.809 216.62L160.622 175.216C160.855 164.983 158.217 161.012 158.217 161.012L145.014 144.745C143.53 142.817 141.955 142.064 140.582 141.852C140.632 141.875 141.838 142.014 144.6 145.647L152.825 156.106C156.298 160.506 158.342 165.849 158.689 171.428C158.819 173.602 158.905 176.226 158.923 179.391C158.923 179.391 159.586 204.027 144.787 222.644L161.809 216.62Z" fill="#CC9875"/>
<path d="M96.8665 202.443C95.1551 200.823 93.6747 199.293 92.3933 197.869C90.9449 196.257 89.6795 194.492 88.6199 192.606C85.835 187.65 93.5462 161.281 93.5462 161.281L92.6566 158.156C85.7246 160.156 84.576 172.003 84.576 172.003L81.6179 185.598C80.8127 195.007 86.0521 200.907 86.0521 200.907C99.2619 216.858 117.805 232.202 117.805 232.202L126.914 228.976L96.8665 202.443Z" fill="#F9C29D"/>
<path d="M90.5686 151.002L90.567 151L90.5686 151.002Z" fill="#F9C29D"/>
<path d="M108.84 141.101C100.927 121.492 95.5184 107.134 87.3476 88.2137C86.515 86.2869 84.7553 84.8656 82.7135 84.5068C83.269 84.7975 85.3476 86.1029 86.8945 89.9966L111.634 150.388C111.634 150.388 110.489 145.202 108.84 141.101Z" fill="#C18D68"/>
<path d="M78.12 93.626C78.3747 94.3657 78.9382 95.0853 78.9382 95.0853C81.0197 97.4954 84.0766 96.2911 84.0766 96.2911C87.3897 94.6113 86.3132 90.9058 86.3132 90.9058L84.3847 85.063C83.5775 84.6522 82.6857 84.4317 81.7787 84.4186C78.8328 84.3828 77.1554 85.8235 76.0161 87.6493L78.12 93.626Z" fill="#FCC6A0"/>
<path d="M111.978 138.792C110.813 139.388 109.755 140.169 108.843 141.103C108.843 141.103 112.189 151.812 112.994 153.591C112.991 153.587 115.627 146.98 111.978 138.792Z" fill="#ECAC80"/>
<path d="M127.011 139.164C125.7 139.692 124.51 140.475 123.508 141.467C123.508 141.467 125.923 150.041 125.826 150.743C125.825 150.741 131.282 145.747 127.011 139.164Z" fill="#ECAC80"/>
<path d="M125.827 150.741C125.827 150.741 125.855 146.875 123.51 141.465C121.725 139.526 119.967 138.49 118.315 138.028C119.122 138.297 123.109 140.14 125.827 150.741Z" fill="#C18D68"/>
<path d="M139.264 149.317C139.264 149.317 139.614 145.44 138.176 141.983C137.687 142.105 137.216 142.291 136.776 142.535C136.776 142.535 138.488 146.181 139.264 149.317Z" fill="#ECAC80"/>
<path d="M132.917 139.312C132.965 139.348 137.25 142.48 139.266 149.317C139.266 149.317 138.689 146.77 136.778 142.535C135.474 140.921 134.171 139.91 132.917 139.312Z" fill="#C18D68"/>
<path d="M82.5108 96.8177H82.3276C80.3752 96.789 78.596 95.5639 77.9986 93.839L76.2519 88.7681C76.237 88.7233 76.2405 88.6745 76.2616 88.6323C76.2827 88.59 76.3198 88.5578 76.3647 88.5425C76.4097 88.5272 76.4589 88.5302 76.5017 88.5507C76.5444 88.5712 76.5773 88.6077 76.5932 88.6521L78.3392 93.723C78.8853 95.3076 80.526 96.4332 82.3297 96.4597H82.5051C83.6912 96.4525 84.7943 95.8654 85.5353 94.8486C86.3362 93.7438 86.5887 92.316 86.194 91.1253L84.4754 85.9312C84.4639 85.8871 84.4696 85.8404 84.4916 85.8004C84.5135 85.7604 84.55 85.7302 84.5936 85.716C84.6372 85.7018 84.6846 85.7045 84.7262 85.7238C84.7677 85.743 84.8004 85.7772 84.8174 85.8195L86.536 91.0128C86.9689 92.3139 86.6955 93.8648 85.8282 95.0605C85.023 96.1682 83.8138 96.8098 82.5108 96.8177Z" fill="white"/>
</g>
<defs>
<clipPath id="clip0_6649_37189">
<rect width="184.853" height="250" fill="white" transform="translate(0.073288)"/>
</clipPath>
</defs>
</svg>
