<svg width="307" height="243" viewBox="0 0 307 243" fill="none" xmlns="http://www.w3.org/2000/svg">
<path d="M287.68 239.832H50.756" stroke="#C65A5A" stroke-width="5" stroke-miterlimit="10" stroke-linecap="round"/>
<path d="M119.405 239.485H65.8282C61.0439 239.485 57.1654 235.606 57.1654 230.822C57.1654 226.038 61.0439 222.159 65.8282 222.159H119.405C124.189 222.159 128.067 226.038 128.067 230.822C128.067 235.607 124.189 239.485 119.405 239.485Z" fill="#F4CCC6"/>
<path d="M119.405 218.332H65.8282C61.0439 218.332 57.1654 214.454 57.1654 209.67C57.1654 204.886 61.0439 201.008 65.8282 201.008H119.405C124.189 201.008 128.067 204.886 128.067 209.67C128.067 214.454 124.189 218.332 119.405 218.332Z" fill="#7D392B"/>
<path d="M119.405 197.179H65.8282C61.0439 197.179 57.1654 193.3 57.1654 188.516C57.1654 183.732 61.0439 179.853 65.8282 179.853H119.405C124.189 179.853 128.067 183.732 128.067 188.516C128.067 193.3 124.189 197.179 119.405 197.179Z" fill="#7D392B"/>
<path d="M119.405 176.026H65.8282C61.0439 176.026 57.1654 172.147 57.1654 167.363C57.1654 162.579 61.0439 158.7 65.8282 158.7H119.405C124.189 158.7 128.067 162.579 128.067 167.363C128.067 172.148 124.189 176.026 119.405 176.026Z" fill="#7D392B"/>
<path d="M273.663 239.485H220.085C215.301 239.485 211.422 235.606 211.422 230.822C211.422 226.038 215.301 222.159 220.085 222.159H273.662C278.446 222.159 282.325 226.038 282.325 230.822C282.325 235.607 278.446 239.485 273.663 239.485Z" fill="#7D392B"/>
<path d="M273.663 218.332H220.085C215.301 218.332 211.422 214.454 211.422 209.67C211.422 204.886 215.301 201.008 220.085 201.008H273.662C278.446 201.008 282.325 204.886 282.325 209.67C282.325 214.454 278.446 218.332 273.663 218.332Z" fill="#7D392B"/>
<path d="M273.663 197.179H220.085C215.301 197.179 211.422 193.3 211.422 188.516C211.422 183.732 215.301 179.853 220.085 179.853H273.662C278.446 179.853 282.325 183.732 282.325 188.516C282.325 193.3 278.446 197.179 273.663 197.179Z" fill="#7D392B"/>
<path d="M273.663 176.026H220.085C215.301 176.026 211.423 172.147 211.423 167.363C211.423 162.579 215.301 158.7 220.085 158.7H273.662C278.447 158.7 282.325 162.579 282.325 167.363C282.325 172.148 278.447 176.026 273.663 176.026Z" fill="#7D392B"/>
<path d="M260.13 225.427C260.13 225.427 267.668 220.911 273.197 214.745C278.725 208.579 289.656 198.419 295.562 195.946C297.572 201.471 300.462 207.961 294.054 214.745C287.646 221.529 284.379 219.882 280.987 226.174C277.594 232.465 273.919 236.411 268.516 239.183H248.444L260.13 225.427Z" fill="#A54936"/>
<path d="M289.845 202.483C288.714 205.007 288.166 209.34 286.075 211.165C280.515 216.017 270.76 217.576 267.689 219.977C269.526 218.454 271.46 216.681 273.196 214.745C278.725 208.579 289.656 198.419 295.561 195.946C293.486 197.004 290.975 199.96 289.845 202.483Z" fill="#D06A55"/>
<path d="M293.803 199.379C291.447 201.888 289.374 210.007 285.228 214.745C281.081 219.482 279.762 220.362 274.862 223.481C269.962 226.6 261.386 233.771 259.125 239.183" stroke="#263631" stroke-width="0.671" stroke-miterlimit="10"/>
<path d="M257.24 171.577C257.24 171.577 254.884 176.615 254.036 183.993C253.25 190.83 254.413 192.214 252.905 199.97C251.397 207.726 250.015 209.942 248.444 218.991C246.874 228.039 245.743 239.182 245.743 239.182H230.907C230.907 239.182 232.048 236.196 232.205 228.839C232.361 221.481 231.19 211.96 233.755 202.805C236.32 193.65 242.916 176.535 257.24 171.577Z" fill="#A54936"/>
<path d="M252.528 176.375C252.528 176.375 244.612 183.986 242.916 195.296C241.219 206.606 242.727 227.772 241.219 233.478" stroke="#263631" stroke-width="0.671" stroke-miterlimit="10"/>
<path d="M289.28 174.148C289.28 174.148 282.243 176.481 277.594 177.015C272.945 177.548 267.291 178.081 264.401 180.853C261.511 183.626 261.511 190.344 257.617 192.476C253.721 194.609 246.936 201.361 244.675 206.783C242.414 212.204 241.031 222.654 240.905 226.813C240.78 230.972 238.393 237.263 237.262 239.182H251.836C251.836 239.182 262.391 230.225 265.155 223.187C267.919 216.149 267.166 208.578 270.055 204.42C272.945 200.261 278.074 194.685 282.117 189.698C287.646 182.88 289.28 174.148 289.28 174.148Z" fill="#A54936"/>
<path d="M270.056 204.42C269.37 205.407 268.893 206.592 268.522 207.912L268.517 207.915C269.554 198.342 271.439 192.784 274.957 189.699C278.475 186.613 288.15 178.64 289.281 174.149C289.281 174.149 287.647 182.88 282.119 189.699C278.075 194.685 272.946 200.261 270.056 204.42Z" fill="#D06A55"/>
<path d="M284.505 177.548C279.73 181.28 273.951 183.711 269.93 187.987C265.91 192.263 260.546 201.029 257.24 207.099C251.236 218.123 246.812 234.064 242.916 239.183" stroke="#263631" stroke-width="0.671" stroke-miterlimit="10"/>
<path d="M268.419 232.204H70.0153V235.286H268.419V232.204Z" fill="#C9BCBC"/>
<path d="M156.367 231.019H181.359C182.051 231.019 182.611 231.579 182.611 232.271V233.085C182.611 233.777 182.051 234.337 181.359 234.337H156.367C155.675 234.337 155.114 233.776 155.114 233.085V232.271C155.114 231.579 155.675 231.019 156.367 231.019Z" fill="black"/>
<path d="M89.2161 128.067C89.2161 126.407 90.5618 125.061 92.2224 125.061H246.213C247.873 125.061 249.219 126.406 249.219 128.067V232.204H89.2161V128.067Z" fill="#282B38"/>
<path d="M245.176 130.081H93.4973V226.515H245.176V130.081Z" fill="#A54936"/>
<path d="M85.5786 238.367C79.6382 238.367 73.1038 237.381 70.0153 235.285H169.336V238.367C143.595 238.243 91.1628 238.367 85.5786 238.367Z" fill="#EADFDF"/>
<path d="M252.856 238.367C258.796 238.367 265.33 237.381 268.419 235.285H169.098V238.367C194.839 238.243 247.272 238.367 252.856 238.367Z" fill="#EADFDF"/>
<path d="M145.492 174.52H193.181C221.897 174.52 245.175 197.799 245.175 226.515H93.4968C93.4974 197.799 116.776 174.52 145.492 174.52Z" fill="#9B301A"/>
<path d="M210.755 138.13C209.792 135.406 208.616 132.95 207.362 130.913L204.679 123.326L199.763 125.064C196.634 126.169 196.484 133.813 199.426 142.135C202.368 150.457 207.29 156.308 210.418 155.201L215.334 153.463L212.651 145.875C212.346 143.503 211.717 140.854 210.755 138.13Z" fill="#DC9530"/>
<path opacity="0.3" d="M211.474 143.105C211.689 144.08 211.857 145.04 211.977 145.962L211.985 146.034L214.106 152.034L208.083 154.164C206.239 153.116 203.967 150.41 201.99 146.459L211.474 143.105Z" fill="#DC9530"/>
<path opacity="0.3" d="M210.112 138.357C210.408 139.192 210.674 140.034 210.91 140.871L201.024 144.366C200.69 143.585 200.369 142.763 200.066 141.908C199.837 141.261 199.628 140.623 199.441 139.996L209.395 136.477C209.648 137.092 209.887 137.722 210.112 138.357Z" fill="#DC9530"/>
<path opacity="0.3" d="M208.704 134.887L198.98 138.325C198.763 137.478 198.588 136.657 198.446 135.868L207.577 132.64C207.97 133.356 208.346 134.107 208.704 134.887Z" fill="#DC9530"/>
<path opacity="0.3" d="M206.285 129.911L206.739 131.194L198.195 134.214C198.137 133.735 198.091 133.268 198.06 132.819L206.285 129.911Z" fill="#DC9530"/>
<path d="M215.67 136.392C218.612 144.714 218.461 152.357 215.333 153.463C212.205 154.569 207.284 148.719 204.341 140.397C201.399 132.075 201.55 124.431 204.678 123.326C207.807 122.219 212.727 128.07 215.67 136.392Z" fill="#F4C77F"/>
<path d="M213.783 137.059C215.744 142.608 215.644 147.703 213.557 148.441C213.233 148.555 212.875 148.559 212.501 148.458C210.478 147.918 207.884 144.411 206.229 139.73C204.574 135.049 204.386 130.691 205.621 128.999C205.849 128.685 206.129 128.464 206.454 128.349C208.541 127.611 211.821 131.511 213.783 137.059Z" fill="#E4B65A"/>
<path d="M213.783 137.059C215.745 142.608 215.644 147.703 213.558 148.441C213.233 148.555 212.875 148.559 212.501 148.458C213.735 146.767 213.548 142.409 211.893 137.728C210.238 133.046 207.644 129.539 205.621 128.999C205.849 128.685 206.129 128.464 206.454 128.349C208.541 127.611 211.821 131.511 213.783 137.059Z" fill="#DC9530"/>
<path d="M211.21 138.376C210.946 138.045 210.659 137.823 210.349 137.71C210.465 137.439 210.514 137.12 210.494 136.753C210.474 136.385 210.392 135.992 210.247 135.572C210.001 134.861 209.664 134.339 209.236 134.007C208.81 133.677 208.323 133.605 207.778 133.792L207.178 132.059L206.057 132.447L206.656 134.18L205.576 134.553L208.688 143.551L209.767 143.178L210.364 144.903L211.485 144.516L210.889 142.79L211.001 142.751C211.564 142.556 211.92 142.191 212.068 141.655C212.216 141.12 212.153 140.458 211.881 139.669C211.697 139.139 211.473 138.708 211.21 138.376ZM209.001 136.492C209.155 136.938 209.081 137.213 208.78 137.317L208.134 137.54L207.672 136.203L208.318 135.98C208.619 135.876 208.847 136.047 209.001 136.492ZM210.15 140.671L209.316 140.959L208.827 139.545L209.661 139.257C209.966 139.151 210.2 139.335 210.363 139.806C210.526 140.277 210.455 140.566 210.15 140.671Z" fill="#FFDEAE"/>
<path d="M108.135 167.398C109.098 164.674 110.273 162.218 111.528 160.181L114.21 152.594L119.127 154.332C122.255 155.438 122.405 163.081 119.463 171.403C116.521 179.725 111.6 185.576 108.472 184.469L103.555 182.731L106.238 175.143C106.542 172.77 107.172 170.121 108.135 167.398Z" fill="#DC9530"/>
<path opacity="0.3" d="M107.414 172.374C107.2 173.348 107.031 174.309 106.912 175.231L106.903 175.302L104.782 181.302L110.805 183.432C112.65 182.384 114.922 179.679 116.898 175.727L107.414 172.374Z" fill="#DC9530"/>
<path opacity="0.3" d="M108.775 167.624C108.48 168.46 108.214 169.301 107.977 170.139L117.863 173.634C118.197 172.853 118.519 172.031 118.821 171.176C119.05 170.528 119.259 169.89 119.446 169.264L109.492 165.745C109.239 166.36 109 166.99 108.775 167.624Z" fill="#DC9530"/>
<path opacity="0.3" d="M110.186 164.155L119.909 167.592C120.126 166.746 120.301 165.925 120.443 165.136L111.312 161.908C110.92 162.623 110.543 163.375 110.186 164.155Z" fill="#DC9530"/>
<path opacity="0.3" d="M112.604 159.179L112.151 160.461L120.694 163.482C120.753 163.002 120.798 162.535 120.829 162.087L112.604 159.179Z" fill="#DC9530"/>
<path d="M103.218 165.66C100.276 173.982 100.427 181.626 103.555 182.731C106.683 183.837 111.604 177.987 114.547 169.665C117.489 161.343 117.338 153.699 114.21 152.594C111.082 151.487 106.161 157.337 103.218 165.66Z" fill="#F4C77F"/>
<path d="M105.106 166.327C103.144 171.876 103.244 176.971 105.331 177.708C105.656 177.823 106.013 177.827 106.388 177.726C108.411 177.186 111.005 173.679 112.659 168.998C114.314 164.317 114.501 159.958 113.267 158.267C113.039 157.953 112.759 157.731 112.434 157.617C110.348 156.879 107.067 160.778 105.106 166.327Z" fill="#E4B65A"/>
<path d="M105.106 166.327C103.144 171.876 103.244 176.971 105.331 177.708C105.656 177.823 106.013 177.827 106.388 177.726C105.153 176.035 105.34 171.676 106.995 166.995C108.65 162.314 111.244 158.806 113.267 158.267C113.039 157.953 112.759 157.731 112.434 157.617C110.348 156.879 107.067 160.778 105.106 166.327Z" fill="#DC9530"/>
<path d="M111.94 169.117C111.937 168.694 111.848 168.342 111.674 168.061C111.933 167.92 112.168 167.7 112.379 167.398C112.591 167.097 112.769 166.737 112.914 166.317C113.16 165.606 113.217 164.988 113.086 164.462C112.954 163.939 112.616 163.582 112.071 163.392L112.671 161.659L111.549 161.272L110.95 163.004L109.87 162.632L106.759 171.629L107.839 172.002L107.242 173.728L108.364 174.116L108.96 172.39L109.072 172.429C109.636 172.624 110.142 172.556 110.588 172.226C111.035 171.896 111.395 171.337 111.668 170.549C111.852 170.018 111.943 169.54 111.94 169.117ZM111.366 166.271C111.212 166.717 110.984 166.887 110.683 166.783L110.037 166.56L110.499 165.223L111.145 165.447C111.446 165.55 111.52 165.826 111.366 166.271ZM109.689 170.268L108.855 169.979L109.344 168.566L110.178 168.854C110.483 168.96 110.554 169.248 110.391 169.719C110.228 170.19 109.994 170.373 109.689 170.268Z" fill="#FFDEAE"/>
<path d="M233.773 187.505C233.98 180.439 229.819 174.404 224.064 172.748L224.075 172.383L221.217 172.3C214.043 172.09 208.033 178.557 207.793 186.745C207.554 194.932 213.175 201.74 220.35 201.95L223.208 202.033L223.218 201.669C229.06 200.352 233.566 194.571 233.773 187.505Z" fill="#DC9530"/>
<path d="M226.151 199.996L226.155 199.859C226.075 199.904 225.994 199.946 225.913 199.988L226.151 199.996Z" fill="#9B301A" stroke="#262425" stroke-width="0.7276" stroke-miterlimit="10"/>
<path opacity="0.3" d="M209.25 192.504C210.336 195.579 212.346 198.119 214.903 199.667L225.913 199.989C225.994 199.946 226.075 199.904 226.155 199.86L226.356 193.005L209.25 192.504Z" fill="#DC9530"/>
<path opacity="0.3" d="M223.768 187.81L208.36 187.359C208.37 188.849 208.582 190.287 208.969 191.635L223.644 192.064L223.768 187.81Z" fill="#DC9530"/>
<path opacity="0.3" d="M223.169 184.603L208.65 184.178C208.501 184.951 208.407 185.748 208.374 186.563L223.098 186.994L223.169 184.603Z" fill="#DC9530"/>
<path opacity="0.3" d="M223.232 182.438L209.222 182.028C209.088 182.416 208.967 182.811 208.863 183.215L223.198 183.635L223.232 182.438Z" fill="#DC9530"/>
<path d="M236.63 187.577C236.869 179.389 231.247 172.582 224.073 172.372C216.898 172.162 210.888 178.63 210.649 186.818C210.41 195.005 216.032 201.813 223.206 202.022C230.381 202.232 236.391 195.764 236.63 187.577Z" fill="#F4C77F"/>
<path opacity="0.3" d="M236.007 187.571C235.779 195.354 230.047 201.522 223.228 201.323C218.569 201.186 214.587 198.112 212.607 193.693C214.343 194.859 216.355 195.552 218.515 195.615C225.334 195.815 231.066 189.646 231.294 181.864C231.366 179.399 230.879 177.063 229.961 175.019C233.709 177.535 236.163 182.253 236.007 187.571Z" fill="#DC9530"/>
<path d="M233.153 187.487C232.977 193.483 228.577 198.219 223.322 198.065C222.942 198.054 222.567 198.017 222.2 197.956C217.497 197.185 213.965 192.493 214.127 186.931C214.29 181.368 218.09 176.891 222.831 176.395C223.2 176.356 223.578 176.341 223.958 176.352C229.212 176.506 233.328 181.49 233.153 187.487Z" fill="#DC9530"/>
<path d="M230.902 187.421C230.739 192.983 226.943 197.459 222.2 197.956C221.306 197.809 220.453 197.523 219.662 197.113C217.837 196.17 216.329 194.584 215.349 192.616C214.518 190.947 214.067 188.999 214.128 186.931C214.29 181.368 218.09 176.891 222.831 176.395C227.537 177.169 231.065 181.859 230.902 187.421Z" fill="#E4B65A"/>
<path d="M226.446 188.121C226.214 187.669 225.879 187.321 225.442 187.078C225.79 186.843 226.056 186.529 226.241 186.137C226.425 185.746 226.522 185.302 226.534 184.805C226.553 183.963 226.314 183.283 225.815 182.764C225.318 182.247 224.572 181.976 223.577 181.951L223.625 179.9L221.578 179.852L221.531 181.903L219.561 181.857L219.313 192.505L221.283 192.55L221.235 194.592L223.281 194.64L223.329 192.598L223.533 192.603C224.562 192.627 225.353 192.389 225.908 191.889C226.463 191.39 226.751 190.674 226.772 189.74C226.788 189.113 226.679 188.573 226.446 188.121ZM223.973 185.263C223.961 185.79 223.68 186.047 223.13 186.034L221.952 186.007L221.989 184.425L223.167 184.452C223.717 184.465 223.985 184.736 223.973 185.263ZM223.378 190.089L221.857 190.053L221.896 188.38L223.417 188.416C223.974 188.429 224.246 188.714 224.233 189.272C224.221 189.83 223.936 190.102 223.378 190.089Z" fill="#FFDEAE"/>
<path opacity="0.3" d="M230.279 187.403C230.115 192.996 225.993 197.431 221.092 197.288C220.604 197.274 220.127 197.215 219.662 197.113C217.837 196.17 216.329 194.584 215.349 192.616C216.051 192.846 216.79 192.977 217.553 192.999C222.454 193.142 226.573 188.707 226.737 183.114C226.787 181.392 226.457 179.756 225.831 178.313C228.58 180.105 230.392 183.532 230.279 187.403Z" fill="#DC9530"/>
<path d="M162.666 117.556C156.441 114.203 149.182 115.218 145.122 119.62L144.801 119.447L143.445 121.964C140.042 128.283 143.128 136.554 150.34 140.438C157.552 144.323 166.156 142.349 169.56 136.03L170.916 133.513L170.595 133.34C172.037 127.528 168.889 120.909 162.666 117.556Z" fill="#DC9530"/>
<path d="M170.414 129.968L170.293 129.903C170.298 129.995 170.299 130.087 170.301 130.178L170.414 129.968Z" fill="#9B301A" stroke="#262425" stroke-width="0.7276" stroke-miterlimit="10"/>
<path opacity="0.3" d="M156.141 141.718C159.376 142.125 162.548 141.467 165.077 139.875L170.3 130.178C170.298 130.086 170.297 129.995 170.293 129.903L164.256 126.651L156.141 141.718Z" fill="#DC9530"/>
<path opacity="0.3" d="M158.453 126.635L151.142 140.207C152.479 140.866 153.859 141.321 155.238 141.579L162.201 128.654L158.453 126.635Z" fill="#DC9530"/>
<path opacity="0.3" d="M155.317 125.733L148.429 138.521C149.054 139.001 149.724 139.442 150.438 139.838L157.424 126.868L155.317 125.733Z" fill="#DC9530"/>
<path opacity="0.3" d="M153.411 124.706L146.764 137.047C147.05 137.34 147.349 137.625 147.664 137.899L154.464 125.274L153.411 124.706Z" fill="#DC9530"/>
<path d="M170.913 133.512C174.316 127.193 171.229 118.922 164.018 115.038C156.807 111.154 148.202 113.127 144.798 119.446C141.395 125.765 144.482 134.036 151.693 137.92C158.905 141.804 167.509 139.831 170.913 133.512Z" fill="#F4C77F"/>
<path opacity="0.3" d="M163.726 115.588C170.581 119.28 173.525 127.17 170.29 133.176C168.079 137.281 163.546 139.461 158.709 139.25C160.53 138.221 162.051 136.733 163.076 134.831C166.311 128.824 163.366 120.935 156.512 117.243C154.341 116.074 152.035 115.462 149.796 115.366C153.725 113.144 159.042 113.065 163.726 115.588Z" fill="#DC9530"/>
<path d="M162.371 118.102C167.652 120.947 169.913 127.004 167.42 131.632C167.24 131.966 167.038 132.285 166.82 132.586C164.021 136.445 158.244 137.499 153.344 134.859C148.445 132.22 146.146 126.816 147.829 122.356C147.959 122.009 148.115 121.665 148.296 121.33C150.788 116.703 157.089 115.257 162.371 118.102Z" fill="#DC9530"/>
<path d="M161.303 120.085C166.202 122.724 168.501 128.123 166.82 132.586C166.287 133.319 165.649 133.953 164.928 134.476C163.266 135.685 161.174 136.322 158.975 136.316C157.11 136.311 155.166 135.84 153.344 134.859C148.445 132.22 146.146 126.815 147.829 122.356C150.63 118.497 156.404 117.446 161.303 120.085Z" fill="#E4B65A"/>
<path d="M160.28 124.195C159.751 124.187 159.24 124.34 158.746 124.651C158.785 124.173 158.705 123.735 158.505 123.339C158.306 122.943 158.004 122.606 157.602 122.328C156.92 121.857 156.198 121.735 155.435 121.96C154.675 122.186 153.951 122.794 153.264 123.787L151.602 122.639L150.191 124.682L151.852 125.83L150.493 127.796L159.117 133.755L160.476 131.789L162.13 132.932L163.541 130.889L161.888 129.746L162.028 129.542C162.738 128.515 163.072 127.588 163.032 126.759C162.992 125.931 162.594 125.256 161.838 124.734C161.329 124.382 160.809 124.202 160.28 124.195ZM156.263 125.163C156.689 125.458 156.714 125.88 156.334 126.429L155.521 127.605L154.24 126.72L155.053 125.544C155.432 124.995 155.836 124.867 156.263 125.163ZM159.848 128.351L158.798 129.869L157.443 128.933L158.493 127.414C158.877 126.858 159.295 126.736 159.747 127.049C160.198 127.361 160.232 127.795 159.848 128.351Z" fill="#FFDEAE"/>
<path opacity="0.3" d="M161.007 120.634C165.933 123.287 168.05 128.96 165.725 133.276C165.494 133.706 165.227 134.106 164.928 134.476C163.266 135.685 161.174 136.322 158.975 136.316C159.495 135.791 159.943 135.19 160.305 134.517C162.63 130.201 160.512 124.53 155.585 121.877C154.068 121.059 152.458 120.622 150.888 120.535C153.723 118.881 157.598 118.798 161.007 120.634Z" fill="#DC9530"/>
<mask id="mask0_6649_37398" style="mask-type:luminance" maskUnits="userSpaceOnUse" x="93" y="130" width="153" height="97">
<path d="M245.175 130.081H93.4968V226.515H245.175V130.081Z" fill="white"/>
</mask>
<g mask="url(#mask0_6649_37398)">
<path d="M197.035 227.829C197.035 227.829 166.141 243.096 157.888 244.285C157.685 244.312 157.498 244.337 157.324 244.347C155.687 244.457 153.758 243.853 152.328 242.543C151.459 242.385 150.717 242.145 150.083 241.825C147.851 240.718 146.956 238.737 146.401 236.508C145.482 232.823 138.293 201.343 137.019 192.98C136.382 188.802 136.273 186.234 136.67 184.558C137.067 182.882 137.974 182.104 139.36 181.503C142.136 180.302 154.316 175.542 169.789 170.614C185.261 165.686 190.129 168.724 190.129 168.724C190.129 168.724 190.128 168.73 190.127 168.735L190.132 168.736L191.717 182.297L197.035 227.829Z" fill="#8D1807"/>
<path opacity="0.3" d="M178.58 173.059C178.322 173.164 178.057 173.273 177.788 173.376C176.864 173.748 175.883 174.133 174.857 174.532C174.525 174.663 174.187 174.793 173.843 174.927C172.727 175.355 171.57 175.804 170.38 176.257C169.968 176.413 169.55 176.574 169.132 176.734C168.217 177.081 167.295 177.432 166.363 177.781C164.047 178.655 161.703 179.537 159.455 180.385C159.351 180.428 159.243 180.465 159.135 180.502L159.134 180.507C159.129 180.506 159.129 180.506 159.129 180.506C157.774 181.015 156.458 181.514 155.195 181.989C154.925 182.097 154.657 182.195 154.394 182.294C154.245 182.351 154.096 182.408 153.948 182.466C153.478 182.646 153.015 182.82 152.568 182.992C148.105 184.693 144.829 185.989 144.223 186.394C141.943 187.926 141.942 191.095 142.623 196.303C143.308 201.517 151.353 239.664 152.101 241.417C152.286 241.85 152.35 242.226 152.328 242.539C151.459 242.388 150.717 242.142 150.084 241.822C147.912 234.971 141.921 207.488 140.561 199.71C138.994 190.784 138.294 186.149 139.258 185.213C139.608 184.87 144.26 183.032 150.29 180.774C150.519 180.691 150.748 180.603 150.982 180.516C151.479 180.33 151.982 180.145 152.49 179.956C152.73 179.864 152.976 179.774 153.221 179.683C154.334 179.276 155.476 178.858 156.629 178.435C156.812 178.367 157 178.3 157.188 178.232C158.45 177.768 159.721 177.311 160.987 176.858C161.808 176.561 162.629 176.27 163.433 175.981C165.109 175.382 166.748 174.81 168.29 174.277C168.597 174.169 168.905 174.061 169.201 173.957C169.849 173.736 170.474 173.522 171.076 173.32C171.366 173.22 171.645 173.124 171.923 173.033C172.963 172.685 173.923 172.361 174.79 172.083C175.055 172.001 175.306 171.916 175.549 171.841C176.636 171.495 177.544 171.228 178.212 171.053C178.404 170.997 178.577 170.954 178.728 170.918C178.795 170.902 178.867 170.886 178.935 170.87C184.334 169.622 185.532 169.74 185.532 169.74C185.781 170.032 182.91 171.321 178.58 173.059Z" fill="#4A6C8F"/>
<path d="M175.631 171.381C175.607 171.534 175.582 171.691 175.548 171.842C175.387 172.769 175.149 173.668 174.857 174.532C174.525 174.663 174.187 174.793 173.843 174.927C172.727 175.355 171.57 175.804 170.38 176.257C169.968 176.413 169.55 176.574 169.132 176.735C168.217 177.081 167.295 177.432 166.363 177.781C164.047 178.655 161.703 179.537 159.455 180.385C159.351 180.428 159.243 180.465 159.135 180.502L159.134 180.507C159.129 180.506 159.129 180.506 159.129 180.506C157.774 181.015 156.459 181.514 155.195 181.989C154.925 182.097 154.657 182.195 154.394 182.294C154.245 182.351 154.097 182.408 153.948 182.466C153.478 182.646 153.015 182.821 152.568 182.992C151.733 182.345 150.973 181.602 150.29 180.774C147.353 177.225 145.897 172.16 146.728 166.855C148.154 157.747 155.781 151.376 163.765 152.626L166.942 153.123L166.879 153.528C169.808 154.788 172.196 157.094 173.775 160.005C175.532 163.246 176.28 167.237 175.631 171.381Z" fill="#DC9530"/>
<path opacity="0.3" d="M166.568 176.474L166.363 177.782C164.047 178.656 161.703 179.538 159.455 180.386C159.351 180.429 159.243 180.466 159.135 180.503L159.134 180.508C159.129 180.507 159.129 180.507 159.129 180.507C157.774 181.016 156.459 181.515 155.195 181.99C154.925 182.098 154.657 182.196 154.394 182.295C154.245 182.352 154.097 182.409 153.948 182.467L152.839 182.294C152.169 181.763 151.547 181.166 150.981 180.517C149.319 178.589 148.121 176.173 147.539 173.494L166.568 176.474Z" fill="#DC9530"/>
<path opacity="0.3" d="M164.417 170.307L147.274 167.623C147.075 169.289 147.107 170.924 147.35 172.484L163.676 175.04L164.417 170.307Z" fill="#DC9530"/>
<path opacity="0.3" d="M164.201 166.641L148.048 164.112C147.773 164.954 147.555 165.831 147.402 166.737L163.784 169.301L164.201 166.641Z" fill="#DC9530"/>
<path opacity="0.3" d="M164.578 164.233L148.991 161.792C148.787 162.206 148.596 162.631 148.423 163.066L164.37 165.564L164.578 164.233Z" fill="#DC9530"/>
<path d="M178.808 171.879C178.745 172.278 178.672 172.676 178.58 173.059C178.321 173.164 178.057 173.274 177.788 173.376C176.863 173.748 175.883 174.133 174.857 174.532C174.524 174.663 174.186 174.793 173.843 174.927C172.726 175.355 171.569 175.804 170.379 176.257C169.967 176.414 169.549 176.574 169.131 176.735C168.216 177.081 167.295 177.432 166.363 177.781C164.046 178.656 161.702 179.537 159.454 180.385C159.351 180.428 159.243 180.465 159.135 180.502L159.134 180.507C159.129 180.506 159.129 180.506 159.129 180.506C157.773 181.015 156.458 181.514 155.195 181.989C154.925 182.097 154.657 182.195 154.394 182.294C153.686 181.585 153.05 180.803 152.489 179.956C151.315 178.174 150.465 176.109 150.028 173.883C149.962 173.55 149.901 173.217 149.863 172.878C149.64 171.314 149.615 169.685 149.822 168.023C149.846 167.801 149.875 167.579 149.91 167.353C149.922 167.279 149.933 167.206 149.95 167.133C150.098 166.225 150.31 165.349 150.587 164.51C150.697 164.151 150.816 163.804 150.956 163.459C151.115 163.022 151.3 162.599 151.505 162.184C154.448 155.972 160.581 152.127 166.942 153.123C174.631 154.327 179.841 162.16 178.934 170.87C178.903 171.205 178.86 171.543 178.808 171.879Z" fill="#F4C77F"/>
<path opacity="0.3" d="M178.115 171.771C178.03 172.317 177.919 172.854 177.788 173.377C176.864 173.749 175.883 174.133 174.857 174.532C174.525 174.663 174.187 174.793 173.843 174.928C172.727 175.356 171.57 175.804 170.38 176.258C169.968 176.414 169.55 176.575 169.132 176.735C168.217 177.081 167.295 177.432 166.363 177.781C164.047 178.656 161.703 179.538 159.455 180.386C159.351 180.429 159.243 180.465 159.135 180.503L159.134 180.508C159.129 180.507 159.129 180.507 159.129 180.507C157.774 181.015 156.459 181.515 155.195 181.989C154.463 181.304 153.799 180.528 153.221 179.684C152.317 178.375 151.603 176.891 151.12 175.298C152.607 176.596 154.352 177.547 156.293 178.039C156.582 178.117 156.884 178.18 157.188 178.233C157.271 178.252 157.355 178.265 157.444 178.279C158.984 178.52 160.515 178.464 161.981 178.139C162.542 178.022 163.095 177.861 163.637 177.667C163.711 177.64 163.786 177.609 163.86 177.578C164.672 177.275 165.455 176.88 166.205 176.417C166.831 176.031 167.427 175.591 167.998 175.104C167.998 175.104 167.994 175.098 167.999 175.099C168.421 174.746 168.824 174.367 169.201 173.958C170.211 172.9 171.091 171.682 171.808 170.331C172.105 169.774 172.372 169.198 172.606 168.599C173.092 167.389 173.45 166.095 173.663 164.734C173.733 164.288 173.786 163.844 173.823 163.403C173.918 162.245 173.897 161.106 173.774 160.006C173.662 158.933 173.448 157.894 173.141 156.899C176.815 160.105 178.869 165.404 178.211 171.054C178.184 171.292 178.153 171.529 178.115 171.771Z" fill="#DC9530"/>
<path d="M174.942 171.274C174.899 171.547 174.846 171.818 174.788 172.084C174.572 173.089 174.251 174.039 173.843 174.928C172.726 175.356 171.569 175.804 170.379 176.258C169.967 176.414 169.549 176.575 169.131 176.735C168.216 177.081 167.295 177.432 166.363 177.781C164.046 178.656 161.702 179.538 159.454 180.386C159.351 180.429 159.243 180.465 159.135 180.503C159.094 180.485 159.055 180.463 159.016 180.436C158.991 180.426 158.971 180.413 158.947 180.393C158.809 180.312 158.677 180.227 158.546 180.136C158.541 180.135 158.531 180.128 158.522 180.116C158.517 180.115 158.517 180.115 158.511 180.114C157.962 179.738 157.454 179.308 156.986 178.826C156.884 178.719 156.783 178.612 156.682 178.499C156.664 178.48 156.645 178.461 156.627 178.437C156.558 178.361 156.495 178.287 156.431 178.212C156.38 178.156 156.335 178.101 156.291 178.04C156.187 177.916 156.088 177.788 155.991 177.654C155.821 177.428 155.665 177.189 155.509 176.949C155.251 176.532 155.017 176.102 154.808 175.65C154.76 175.551 154.716 175.452 154.673 175.349C154.601 175.187 154.535 175.026 154.469 174.859C154.431 174.762 154.392 174.664 154.36 174.562C154.354 174.534 154.346 174.511 154.335 174.483C154.25 174.233 154.171 173.984 154.097 173.73C154.076 173.662 154.059 173.6 154.037 173.532C154.025 173.471 154.008 173.404 153.996 173.343C153.826 172.676 153.713 171.986 153.652 171.282C153.639 171.124 153.63 170.972 153.622 170.815C153.613 170.701 153.61 170.582 153.613 170.464C153.606 170.34 153.602 170.221 153.607 170.092C153.602 169.914 153.608 169.737 153.62 169.561C153.62 169.421 153.632 169.278 153.638 169.134C153.653 168.969 153.669 168.799 153.685 168.63C153.709 168.408 153.738 168.186 153.773 167.96C153.785 167.886 153.796 167.813 153.813 167.74C153.966 166.828 154.211 165.957 154.529 165.129C154.66 164.773 154.81 164.431 154.976 164.091C155.184 163.655 155.418 163.235 155.668 162.838C157.778 159.466 161.263 157.348 164.984 157.431C165.403 157.437 165.822 157.476 166.247 157.542C169.604 158.068 172.319 160.317 173.821 163.404C174.94 165.688 175.387 168.432 174.942 171.274Z" fill="#DC9530"/>
<path d="M172.437 170.882C172.32 171.628 172.149 172.343 171.923 173.034C171.546 174.202 171.021 175.288 170.379 176.258C169.968 176.414 169.55 176.575 169.132 176.735C168.216 177.081 167.295 177.432 166.363 177.781C164.047 178.656 161.703 179.538 159.455 180.386C159.351 180.429 159.243 180.465 159.135 180.503L159.134 180.508C159.129 180.507 159.129 180.507 159.129 180.507C159.09 180.485 159.05 180.462 159.016 180.436C158.991 180.426 158.972 180.412 158.948 180.393C158.809 180.312 158.677 180.227 158.546 180.136C158.537 180.129 158.522 180.121 158.512 180.114C157.963 179.738 157.455 179.308 156.987 178.826C156.885 178.719 156.784 178.612 156.683 178.499C156.665 178.48 156.646 178.461 156.628 178.437C156.559 178.361 156.496 178.287 156.432 178.212C156.381 178.156 156.336 178.101 156.292 178.04C156.188 177.916 156.089 177.788 155.992 177.654C155.822 177.428 155.666 177.189 155.51 176.949C155.252 176.532 155.018 176.102 154.809 175.65C154.761 175.551 154.717 175.452 154.674 175.348C154.602 175.187 154.536 175.026 154.47 174.859C154.437 174.763 154.399 174.665 154.366 174.563L154.361 174.563C154.355 174.535 154.347 174.512 154.336 174.484C154.251 174.234 154.172 173.984 154.098 173.731C154.082 173.664 154.06 173.601 154.048 173.535C154.026 173.472 154.009 173.405 153.997 173.344C153.827 172.677 153.714 171.986 153.653 171.283C153.64 171.125 153.631 170.973 153.623 170.816C153.614 170.702 153.611 170.583 153.614 170.465C153.607 170.34 153.603 170.221 153.608 170.092C153.603 169.914 153.609 169.737 153.621 169.562C153.621 169.422 153.633 169.278 153.639 169.134C153.654 168.97 153.67 168.8 153.686 168.63C153.71 168.408 153.739 168.187 153.774 167.961C153.786 167.887 153.797 167.814 153.814 167.741C153.967 166.829 154.212 165.958 154.53 165.13C154.661 164.774 154.811 164.432 154.977 164.092C155.185 163.656 155.419 163.235 155.669 162.839C157.779 159.467 161.264 157.349 164.985 157.431C169.49 158.766 172.559 163.331 172.605 168.6C172.613 169.348 172.558 170.11 172.437 170.882Z" fill="#E4B65A"/>
<path d="M168.156 171.328C167.955 170.754 167.588 170.263 167.056 169.853C167.587 169.706 168.027 169.446 168.375 169.075C168.724 168.702 168.968 168.244 169.108 167.699C169.346 166.777 169.192 165.95 168.646 165.216C168.102 164.485 167.158 163.945 165.815 163.597L166.395 161.35L163.632 160.636L163.052 162.883L160.393 162.197L157.381 173.862L160.041 174.548L159.464 176.785L162.227 177.499L162.804 175.262L163.08 175.333C164.469 175.691 165.602 175.684 166.48 175.312C167.358 174.94 167.929 174.244 168.193 173.222C168.37 172.532 168.358 171.902 168.156 171.328ZM165.519 167.377C165.37 167.955 164.924 168.147 164.182 167.956L162.591 167.545L163.038 165.812L164.629 166.222C165.372 166.414 165.669 166.799 165.519 167.377ZM163.5 172.508L161.446 171.978L161.92 170.145L163.973 170.675C164.726 170.87 165.023 171.272 164.865 171.883C164.708 172.494 164.253 172.702 163.5 172.508Z" fill="#FFDEAE"/>
<path opacity="0.3" d="M171.743 170.773C171.604 171.665 171.379 172.518 171.075 173.321C170.597 174.592 169.938 175.742 169.131 176.735C168.216 177.081 167.294 177.432 166.362 177.781C164.046 178.656 161.702 179.538 159.454 180.386C159.137 180.315 158.822 180.228 158.522 180.116C158.517 180.115 158.517 180.115 158.512 180.115C157.963 179.738 157.454 179.308 156.986 178.826C156.885 178.719 156.783 178.612 156.682 178.499C156.664 178.48 156.645 178.461 156.627 178.437C156.558 178.361 156.495 178.287 156.431 178.212C156.381 178.156 156.336 178.101 156.291 178.04C156.187 177.916 156.088 177.788 155.991 177.654C155.822 177.428 155.666 177.189 155.51 176.949C155.252 176.532 155.018 176.102 154.809 175.65C154.76 175.551 154.716 175.452 154.673 175.349C154.601 175.187 154.535 175.026 154.47 174.859C154.436 174.763 154.398 174.665 154.365 174.563L154.36 174.563C154.354 174.535 154.347 174.512 154.335 174.484C154.415 174.523 154.501 174.558 154.586 174.598C155.261 174.892 155.987 175.103 156.738 175.221C157.447 175.332 158.153 175.356 158.847 175.293C158.879 175.292 158.917 175.293 158.951 175.282C159.802 175.205 160.631 175.001 161.422 174.689C161.656 174.602 161.887 174.498 162.115 174.388C162.278 174.306 162.447 174.225 162.607 174.132C163.078 173.872 163.529 173.571 163.958 173.235C164.104 173.123 164.246 173.005 164.384 172.882C164.681 172.633 164.96 172.364 165.226 172.077C165.929 171.332 166.547 170.476 167.051 169.527C167.636 168.435 168.068 167.222 168.315 165.921C168.347 165.781 168.37 165.633 168.393 165.486C168.537 164.567 168.583 163.66 168.527 162.779C168.479 161.814 168.319 160.879 168.059 159.994C170.781 162.303 172.309 166.191 171.806 170.331C171.789 170.479 171.766 170.626 171.743 170.773Z" fill="#DC9530"/>
<path d="M200.368 230.461C200.153 230.728 199.783 231.031 199.273 231.365C195.267 233.994 182.868 238.472 174.384 240.582C167.649 242.256 161.589 244.498 157.888 244.284C156.326 244.19 155.186 243.668 154.585 242.487C152.558 238.494 146.96 210.971 145.497 202.067C144.035 193.158 143.657 190.344 146.716 187.756C146.716 187.756 177.277 177.124 183.501 174.525C186.621 173.222 188.28 171.771 189.151 170.642C189.971 169.598 190.112 168.834 190.128 168.734C190.129 168.729 190.13 168.724 190.13 168.724C190.13 168.724 190.129 168.729 190.133 168.735C190.312 169.619 202.256 228.125 200.368 230.461Z" fill="#851606"/>
<g opacity="0.3">
<path d="M198.964 229.628C196.933 231.495 184.193 236.495 173.997 239.037C171.986 239.54 170.062 240.078 168.204 240.605C163.852 241.834 159.737 242.992 157.468 242.637C156.496 242.485 156.183 242.113 156.006 241.762C154.097 238.009 148.559 210.865 147.071 201.808C145.619 192.965 145.489 191.013 147.533 189.164C148.382 188.867 150.8 188.024 154.029 186.888C157.683 190.221 164.219 191.605 170.181 193.98C181.325 198.416 169.761 200.103 169.93 208.47C170.083 215.984 176.143 223.886 198.916 227.322C199.007 228.392 199.023 229.179 198.964 229.628Z" fill="black"/>
</g>
<path d="M163.711 202.466L164.225 200.811C164.225 200.811 163.097 199.869 162.219 199.935C161.34 200.002 146.521 204.011 145.958 204.026C145.394 204.039 138.055 199.725 138.055 199.725L136.734 200.335C136.734 200.335 142.453 206.846 145.273 207.746C148.092 208.647 163.711 202.466 163.711 202.466Z" fill="#8D1807"/>
<path d="M166.546 211.74C166.427 213.152 150.664 217.319 149.165 217.445C149.104 217.452 149.04 217.447 148.966 217.441C147.053 217.254 139.432 213.343 139.186 212.713C138.931 212.075 136.796 200.661 136.738 200.34C136.989 200.488 144.959 205.297 145.973 205.558L146.02 205.566C147.422 205.683 163.1 200.582 164.226 200.813C165.364 201.04 166.664 210.332 166.546 211.74Z" fill="#3E0006"/>
<path opacity="0.3" d="M148.967 217.441C147.054 217.254 139.433 213.343 139.187 212.713C138.932 212.075 136.797 200.661 136.739 200.34C136.99 200.488 144.96 205.297 145.974 205.558L146.021 205.566C146.924 209.453 148.149 214.278 148.967 217.441Z" fill="#4A6C8F"/>
<path opacity="0.3" d="M161.538 204.933C158.872 205.707 160.145 210.892 162.934 210.359C165.723 209.826 164.051 204.204 161.538 204.933Z" fill="#4A6C8F"/>
</g>
<path d="M90.1651 215.737H50.3154V223.278H90.1651V215.737Z" fill="#E4B65A"/>
<path opacity="0.3" d="M87.8783 217.049H78.8661V221.968H87.8783V217.049Z" fill="#DC9530"/>
<path opacity="0.3" d="M76.4359 217.049H69.725V221.968H76.4359V217.049Z" fill="#DC9530"/>
<path opacity="0.3" d="M67.9379 217.049H65.1862V221.968H67.9379V217.049Z" fill="#DC9530"/>
<path d="M90.1648 215.738V215.799L50.3162 218.689V215.738H90.1648Z" fill="#F4C77F"/>
<path d="M90.1651 223.278H50.3154V230.825H90.1651V223.278Z" fill="#E4B65A"/>
<path opacity="0.3" d="M87.8783 224.592H78.8661V229.511H87.8783V224.592Z" fill="#DC9530"/>
<path opacity="0.3" d="M76.4359 224.592H69.725V229.511H76.4359V224.592Z" fill="#DC9530"/>
<path opacity="0.3" d="M67.9379 224.592H65.1862V229.511H67.9379V224.592Z" fill="#DC9530"/>
<path d="M90.1648 223.28V223.341L50.3162 226.232V223.28H90.1648Z" fill="#F4C77F"/>
<path d="M90.1651 230.825H50.3154V238.367H90.1651V230.825Z" fill="#E4B65A"/>
<path opacity="0.3" d="M87.8783 232.134H78.8661V237.053H87.8783V232.134Z" fill="#DC9530"/>
<path opacity="0.3" d="M76.4359 232.134H69.725V237.053H76.4359V232.134Z" fill="#DC9530"/>
<path opacity="0.3" d="M67.9379 232.134H65.1862V237.053H67.9379V232.134Z" fill="#DC9530"/>
<path d="M90.1648 230.823V230.884L50.3162 233.774V230.823H90.1648Z" fill="#F4C77F"/>
<path opacity="0.3" d="M90.1656 215.737V238.367H85.9686C84.0136 236.306 82.0498 233.746 80.2582 230.825C80.2142 230.75 80.1655 230.674 80.1215 230.6C78.6123 228.111 77.3855 225.621 76.4719 223.278C75.3776 220.476 74.7285 217.881 74.5698 215.737H90.1656Z" fill="#DC9530"/>
<path d="M96.7948 217.521C94.3716 214.995 91.8472 212.871 89.4453 211.249L82.6941 204.213L78.1351 208.587C75.234 211.37 78.8847 219.883 86.2892 227.601C93.6937 235.318 102.048 239.319 104.949 236.536L109.508 232.162L102.757 225.125C101.236 222.657 99.2181 220.047 96.7948 217.521Z" fill="#DC9530"/>
<path opacity="0.3" d="M100.075 222.654C100.799 223.623 101.465 224.599 102.057 225.557L102.102 225.632L107.44 231.196L101.854 236.555C99.2948 236.319 95.4356 234.467 91.2805 231.092L100.075 222.654Z" fill="#DC9530"/>
<path opacity="0.3" d="M96.2002 218.092C96.9435 218.867 97.6575 219.663 98.3364 220.47L89.1687 229.265C88.4096 228.569 87.6443 227.823 86.8837 227.03C86.3074 226.429 85.7585 225.83 85.2383 225.232L94.4694 216.376C95.0566 216.928 95.635 217.503 96.2002 218.092Z" fill="#DC9530"/>
<path opacity="0.3" d="M92.9115 214.966L83.8947 223.616C83.232 222.79 82.629 221.972 82.0785 221.172L90.5464 213.048C91.3363 213.641 92.1273 214.283 92.9115 214.966Z" fill="#DC9530"/>
<path opacity="0.3" d="M87.7573 210.68L88.8982 211.869L80.9756 219.47C80.6713 218.97 80.3879 218.477 80.1301 217.998L87.7573 210.68Z" fill="#DC9530"/>
<path d="M101.354 213.147C108.759 220.865 112.409 229.378 109.508 232.161C106.607 234.944 98.2532 230.944 90.8486 223.226C83.4441 215.508 79.7935 206.995 82.6945 204.212C85.5956 201.429 93.9498 205.429 101.354 213.147Z" fill="#F4C77F"/>
<path d="M99.6032 214.827C104.54 219.972 106.973 225.647 105.039 227.503C104.737 227.792 104.345 227.975 103.881 228.05C101.378 228.464 96.763 225.888 92.5984 221.547C88.4339 217.206 86.0504 212.488 86.5685 210.004C86.6633 209.544 86.8618 209.159 87.163 208.87C89.0971 207.015 94.6666 209.681 99.6032 214.827Z" fill="#E4B65A"/>
<path d="M99.6038 214.827C104.54 219.972 106.974 225.647 105.039 227.503C104.738 227.792 104.346 227.975 103.881 228.05C104.4 225.567 102.016 220.848 97.8515 216.507C93.687 212.166 89.0719 209.59 86.5685 210.004C86.6633 209.544 86.8618 209.159 87.163 208.87C89.0976 207.015 94.6671 209.681 99.6038 214.827Z" fill="#DC9530"/>
<path d="M97.7543 218.395C97.2682 218.11 96.8234 217.963 96.4195 217.955C96.3792 217.587 96.2357 217.189 95.9895 216.762C95.7433 216.335 95.4132 215.902 94.9994 215.464C94.299 214.721 93.617 214.24 92.9533 214.02C92.2917 213.801 91.7249 213.913 91.2529 214.356L89.5462 212.546L88.5776 213.459L90.2843 215.269L89.3524 216.148L98.2142 225.546L99.1467 224.667L100.846 226.469L101.815 225.555L100.115 223.753L100.212 223.662C100.699 223.203 100.858 222.626 100.688 221.932C100.519 221.238 100.046 220.479 99.2698 219.656C98.7454 219.101 98.2409 218.681 97.7543 218.395ZM94.2236 217.058C94.6626 217.524 94.7516 217.879 94.4918 218.124L93.9344 218.65L92.6175 217.254L93.1754 216.728C93.4352 216.483 93.7846 216.593 94.2236 217.058ZM98.0215 221.542L97.3017 222.221L95.9093 220.745L96.6291 220.066C96.8926 219.817 97.2566 219.939 97.7208 220.431C98.1844 220.923 98.2849 221.294 98.0215 221.542Z" fill="#FFDEAE"/>
<path d="M147 39.7985C144.258 39.7985 142.036 37.5759 142.036 34.8346C142.036 37.5759 139.814 39.7985 137.072 39.7985C139.814 39.7985 142.036 42.0212 142.036 44.7624C142.036 42.0212 144.259 39.7985 147 39.7985Z" fill="url(#paint0_linear_6649_37398)"/>
<path d="M199.321 90.6102C196.93 90.6102 194.992 88.672 194.992 86.2812C194.992 88.672 193.054 90.6102 190.663 90.6102C193.054 90.6102 194.992 92.5484 194.992 94.9392C194.992 92.5484 196.93 90.6102 199.321 90.6102Z" fill="url(#paint1_linear_6649_37398)"/>
<path d="M77.411 83.6494C75.0202 83.6494 73.082 81.7112 73.082 79.3204C73.082 81.7112 71.1438 83.6494 68.753 83.6494C71.1438 83.6494 73.082 85.5876 73.082 87.9784C73.082 85.5876 75.0202 83.6494 77.411 83.6494Z" fill="url(#paint2_linear_6649_37398)"/>
<path d="M275.218 141.579C272.827 141.579 270.889 139.641 270.889 137.25C270.889 139.641 268.951 141.579 266.56 141.579C268.951 141.579 270.889 143.518 270.889 145.908C270.889 143.518 272.827 141.579 275.218 141.579Z" fill="url(#paint3_linear_6649_37398)"/>
<path d="M260.79 35.6692C258.399 35.6692 256.461 33.7309 256.461 31.3401C256.461 33.7309 254.523 35.6692 252.132 35.6692C254.523 35.6692 256.461 37.6074 256.461 39.9982C256.461 37.6074 258.399 35.6692 260.79 35.6692Z" fill="url(#paint4_linear_6649_37398)"/>
<path d="M32.1029 88.2984L89.8046 34.8115L129.258 94.277L198.574 36.0829L253.772 101.222L306.164 58.6138" stroke="#0A417C" stroke-width="1.1844" stroke-miterlimit="10" stroke-dasharray="7.11 7.11"/>
<path d="M99.1544 59.2734C111.219 54.1093 116.813 40.1428 111.649 28.0785C106.485 16.0142 92.5184 10.4205 80.4538 15.5846C68.3892 20.7488 62.7952 34.7152 67.9592 46.7796C73.1233 58.8439 87.0899 64.4376 99.1544 59.2734Z" fill="#A54936"/>
<path d="M100.464 32.9948C100.464 39.1206 95.4984 48.084 89.3726 48.084C83.2468 48.084 78.2808 39.1206 78.2808 32.9948C78.2808 26.869 83.2468 21.903 89.3726 21.903C95.4984 21.903 100.464 26.869 100.464 32.9948Z" fill="#F4C77F"/>
<path opacity="0.3" d="M99.9315 32.9953C99.9315 38.8184 95.195 47.5524 89.3719 47.5524C85.3928 47.5524 81.9198 41.3438 80.1204 38.0834C81.6306 38.9174 83.3645 39.3915 85.2084 39.3915C91.0315 39.3915 95.768 34.6549 95.768 28.8319C95.768 26.9879 95.2945 25.2524 94.46 23.7438C97.7199 25.5437 99.9315 29.0168 99.9315 32.9953Z" fill="#DC9530"/>
<path d="M97.4949 32.9948C97.4949 37.4809 93.8584 45.1149 89.3722 45.1149C84.886 45.1149 81.2495 37.4809 81.2495 32.9948C81.2495 28.5086 84.886 24.8721 89.3722 24.8721C93.8584 24.8721 97.4949 28.5091 97.4949 32.9948Z" fill="#DC9530"/>
<path d="M91.6674 33.7287C92.0152 33.9592 92.3049 34.2771 92.5354 34.6815C92.7659 35.0865 92.8811 35.5993 92.8811 36.2206C92.8811 36.7198 92.7612 37.1834 92.5212 37.6114C92.2813 38.0399 91.9256 38.395 91.4552 38.6774C90.9843 38.9597 90.4248 39.1295 89.7753 39.1855V40.0467H88.5893V39.1572C87.5254 39.0352 86.5845 38.6769 85.7653 38.0844L86.6689 36.4888C86.9418 36.6863 87.2498 36.8607 87.5935 37.0111C87.9371 37.1619 88.2687 37.2698 88.5888 37.3358V34.5542C87.8921 34.2625 87.3368 33.9 86.9224 33.4673C86.5081 33.0346 86.3012 32.4416 86.3012 31.6883C86.3012 30.8601 86.5578 30.1775 87.0707 29.6411C87.5835 29.1047 88.2781 28.7799 89.1535 28.6668V27.7349H90.3394V28.6809C90.8853 28.7281 91.3604 28.8339 91.7653 28.9984C92.1697 29.1629 92.5747 29.3771 92.9796 29.6406L92.2033 31.2079C91.5066 30.8318 90.8853 30.5961 90.3394 30.5018V33.0854L90.4102 33.1137C90.9 33.2933 91.319 33.4982 91.6674 33.7287ZM88.4201 31.5332C88.4201 31.9005 88.6647 32.2347 89.1545 32.5359V30.5594C88.6647 30.7098 88.4201 31.0345 88.4201 31.5332ZM90.4814 36.9482C90.66 36.7648 90.7496 36.5223 90.7496 36.2211C90.7496 35.7884 90.4248 35.4023 89.7753 35.0634V37.3222C90.067 37.2562 90.3023 37.1315 90.4814 36.9482Z" fill="#FFDEAE"/>
<path opacity="0.3" d="M96.9627 32.9953C96.9627 37.1803 93.5573 44.5832 89.3723 44.5832C86.476 44.5832 83.9542 38.9546 82.6744 36.5643C83.7394 37.1342 84.9547 37.4569 86.2449 37.4569C90.4299 37.4569 93.8338 34.0514 93.8338 29.8664C93.8338 28.5778 93.5106 27.3625 92.9412 26.2975C95.3315 27.5772 96.9627 30.099 96.9627 32.9953Z" fill="#DC9530"/>
<path d="M94.7781 49.0495H83.9539C83.318 49.0495 82.802 48.534 82.802 47.8975C82.802 47.2611 83.318 46.7456 83.9539 46.7456H94.7786C95.4145 46.7456 95.9305 47.2611 95.9305 47.8975C95.93 48.5335 95.4145 49.0495 94.7781 49.0495Z" fill="white"/>
<path opacity="0.4" d="M95.2138 46.832C95.2688 46.9667 95.3002 47.1133 95.3002 47.2679C95.3002 47.9038 94.7842 48.4198 94.1483 48.4198H83.3241C83.1696 48.4198 83.0229 48.3884 82.8883 48.3334C83.0601 48.753 83.4719 49.0495 83.9533 49.0495H94.7779C95.4139 49.0495 95.9299 48.534 95.9299 47.8975C95.9299 47.4156 95.6339 47.0044 95.2138 46.832Z" fill="#2B63A0"/>
<path d="M93.5318 52.1957H85.2011C84.5652 52.1957 84.0492 51.6802 84.0492 51.0438C84.0492 50.4078 84.5652 49.8918 85.2011 49.8918H93.5318C94.1677 49.8918 94.6837 50.4073 94.6837 51.0438C94.6837 51.6797 94.1677 52.1957 93.5318 52.1957Z" fill="white"/>
<path opacity="0.4" d="M94.35 50.2349C94.3595 50.2935 94.3678 50.3527 94.3678 50.414C94.3678 51.05 93.8519 51.5659 93.2159 51.5659H84.8858C84.5652 51.5659 84.2755 51.4345 84.067 51.2233C84.1535 51.7739 84.626 52.1956 85.2006 52.1956H93.5313C94.1672 52.1956 94.6832 51.6801 94.6832 51.0437C94.6832 50.7283 94.5554 50.4428 94.35 50.2349Z" fill="#2B63A0"/>
<path d="M92.4901 55.2858H86.2423C85.6063 55.2858 85.0903 54.7703 85.0903 54.1339C85.0903 53.4979 85.6063 52.9819 86.2423 52.9819H92.4896C93.1255 52.9819 93.6415 53.4974 93.6415 54.1339C93.6415 54.7698 93.1261 55.2858 92.4901 55.2858Z" fill="white"/>
<path opacity="0.4" d="M92.9255 53.0684C92.9805 53.203 93.0119 53.3497 93.0119 53.5042C93.0119 54.1407 92.496 54.6561 91.86 54.6561H85.6132C85.4587 54.6561 85.312 54.6247 85.1774 54.5697C85.3492 54.9893 85.7609 55.2858 86.2423 55.2858H92.4897C93.1256 55.2858 93.6416 54.7703 93.6416 54.1339C93.6416 53.6519 93.3456 53.2407 92.9255 53.0684Z" fill="#2B63A0"/>
<path d="M79.2021 20.5907L81.54 22.739C81.6113 22.8045 81.616 22.9155 81.5505 22.9873C81.5007 23.0413 81.4253 23.057 81.3603 23.0334L78.3818 21.9344C77.9664 21.7809 77.7537 21.3199 77.9072 20.904C78.0607 20.4886 78.5216 20.2759 78.9376 20.4294C79.0371 20.4661 79.1277 20.5237 79.2021 20.5907Z" fill="#F4C77F"/>
<path d="M87.803 18.485L85.869 21.0031C85.8098 21.0801 85.6998 21.0942 85.6228 21.0355C85.5646 20.991 85.5421 20.9166 85.5604 20.8501L86.3928 17.7867C86.5091 17.3592 86.9497 17.1067 87.3771 17.223C87.8046 17.3393 88.0571 17.7799 87.9408 18.2073C87.913 18.3095 87.8638 18.4053 87.803 18.485Z" fill="#F4C77F"/>
<path d="M82.3258 17.6222L83.1932 20.6762C83.2199 20.7694 83.1655 20.8668 83.0722 20.893C83.0015 20.9129 82.9287 20.8867 82.8863 20.8328L80.924 18.3372C80.65 17.9888 80.7102 17.4849 81.0586 17.2109C81.4069 16.937 81.9109 16.9972 82.1848 17.3456C82.2503 17.4294 82.298 17.5258 82.3258 17.6222Z" fill="#F4C77F"/>
<path d="M104.66 40.6995L101.492 40.4842C101.395 40.4774 101.322 40.3936 101.329 40.2972C101.333 40.2239 101.383 40.1642 101.449 40.1427L104.461 39.1385C104.881 38.9986 105.335 39.2254 105.475 39.6456C105.615 40.0657 105.388 40.5198 104.968 40.6602C104.867 40.6938 104.76 40.7058 104.66 40.6995Z" fill="#F4C77F"/>
<path d="M99.2619 47.7206L99.1974 44.5466C99.1953 44.4497 99.2723 44.3696 99.3693 44.3675C99.4426 44.3659 99.5065 44.4099 99.5337 44.4733L100.799 47.3848C100.976 47.7913 100.789 48.2638 100.383 48.4403C99.9769 48.6169 99.5044 48.4309 99.3279 48.0244C99.286 47.9265 99.2645 47.8206 99.2619 47.7206Z" fill="#F4C77F"/>
<path d="M104.077 44.9693L101.491 43.1275C101.412 43.0714 101.394 42.9614 101.45 42.8823C101.492 42.8226 101.565 42.7975 101.633 42.8132L104.724 43.5345C105.156 43.6351 105.424 44.0667 105.323 44.4978C105.222 44.9295 104.791 45.1972 104.36 45.0966C104.256 45.073 104.159 45.0269 104.077 44.9693Z" fill="#F4C77F"/>
<path d="M253.773 121.317C266.897 121.317 277.535 110.678 277.535 97.5546C277.535 84.4312 266.897 73.7926 253.773 73.7926C240.65 73.7926 230.011 84.4312 230.011 97.5546C230.011 110.678 240.65 121.317 253.773 121.317Z" fill="#A54936"/>
<path d="M269.588 101.242C271.675 92.5231 266.299 83.7628 257.579 81.6756C248.86 79.5884 240.1 84.9646 238.013 93.6838C235.926 102.403 241.302 111.163 250.021 113.25C258.74 115.338 267.5 109.961 269.588 101.242Z" fill="#5A89C6"/>
<path d="M265.062 83.052C261.959 80.6256 258.054 79.175 253.81 79.175V98.2549L265.062 83.052Z" fill="#CA404E"/>
<path d="M263.839 84.7037L253.81 98.255L269.243 102.5C269.76 100.913 270.044 99.222 270.044 97.4635C270.043 92.2848 267.616 87.6765 263.839 84.7037Z" fill="#447676"/>
<path d="M253.81 98.255V81.2301C251.746 81.2301 249.774 81.6193 247.958 82.3223L253.81 98.255Z" fill="#5F9B99"/>
<path d="M247.958 82.3218C241.886 84.6707 237.578 90.5623 237.578 97.4634C237.578 98.6195 237.701 99.7463 237.93 100.834L253.811 98.2549L247.958 82.3218Z" fill="#F4C77F"/>
<path d="M152.415 95.9662C155.373 83.1801 147.405 70.417 134.619 67.459C121.833 64.501 109.07 72.4682 106.112 85.2543C103.154 98.0405 111.121 110.804 123.907 113.762C136.693 116.72 149.457 108.752 152.415 95.9662Z" fill="#A54936"/>
<path d="M129.256 90.61V107.019C130.725 107.019 132.148 106.823 133.503 106.461C134.905 106.086 136.232 105.529 137.459 104.819C138.704 104.099 139.848 103.224 140.859 102.213C141.869 101.203 142.745 100.059 143.465 98.8139C144.175 97.5865 144.732 96.2596 145.107 94.8573L129.256 90.61Z" fill="#5A89C6"/>
<path d="M129.256 90.61H112.847C112.847 92.0794 113.043 93.5021 113.405 94.8573C113.78 96.2591 114.337 97.586 115.047 98.8133C115.768 100.059 116.643 101.203 117.654 102.213C118.664 103.224 119.808 104.099 121.053 104.819C122.28 105.53 123.607 106.086 125.009 106.461C126.365 106.823 127.787 107.019 129.257 107.019V90.61H129.256Z" fill="#F4C77F"/>
<path d="M129.256 74.2006C127.786 74.2006 126.364 74.3965 125.008 74.759C123.607 75.1335 122.28 75.6909 121.052 76.4012C119.807 77.1215 118.663 77.9968 117.653 79.0073C116.642 80.0178 115.767 81.1619 115.046 82.4071C114.336 83.6344 113.779 84.9613 113.404 86.3636C113.042 87.7188 112.846 89.1416 112.846 90.611H129.255L133.502 74.76C132.148 74.3965 130.725 74.2006 129.256 74.2006Z" fill="#CA404E"/>
<path d="M145.107 86.3626C144.732 84.9608 144.175 83.6339 143.465 82.406C142.745 81.1609 141.869 80.0168 140.859 79.0063C139.848 77.9958 138.704 77.1205 137.459 76.4002C136.232 75.6898 134.905 75.133 133.503 74.7579L129.256 90.6089L145.107 94.8562C145.469 93.501 145.665 92.0782 145.665 90.6089C145.665 89.1405 145.469 87.7178 145.107 86.3626Z" fill="#447676"/>
<path d="M138.355 92.7457C139.535 87.724 136.422 82.6959 131.4 81.5152C126.378 80.3344 121.35 83.4481 120.169 88.4698C118.989 93.4915 122.102 98.5196 127.124 99.7003C132.146 100.881 137.174 97.7674 138.355 92.7457Z" fill="#C79898"/>
<path d="M221.732 44.055C224.69 31.2689 216.722 18.5057 203.936 15.5477C191.15 12.5897 178.387 20.557 175.429 33.3431C172.471 46.1292 180.438 58.8923 193.224 61.8503C206.011 64.8083 218.774 56.8411 221.732 44.055Z" fill="#A54936"/>
<path d="M198.574 54.2314C207.15 54.2314 214.103 47.2787 214.103 38.7021C214.103 30.1255 207.15 23.1729 198.574 23.1729C189.997 23.1729 183.044 30.1255 183.044 38.7021C183.044 47.2787 189.997 54.2314 198.574 54.2314Z" fill="#462D2D"/>
<path d="M203.712 39.5628C203.382 39.0703 202.916 38.6958 202.314 38.4381C202.78 38.1693 203.132 37.8168 203.37 37.3804C203.608 36.9441 203.727 36.4517 203.727 35.9032C203.727 34.9744 203.38 34.23 202.685 33.6706C201.993 33.1132 200.97 32.8335 199.617 32.8314V30.5679H196.833V32.8309H194.153V44.5822H196.833V46.8358H199.617V44.5822H199.895C201.293 44.5822 202.362 44.2999 203.101 43.7346C203.839 43.1694 204.208 42.3721 204.208 41.3422C204.208 40.6487 204.043 40.0557 203.712 39.5628ZM200.259 36.4742C200.259 37.0562 199.885 37.3469 199.137 37.3469H197.534V35.6009H199.137C199.885 35.6009 200.259 35.8922 200.259 36.4742ZM199.603 41.8127H197.534V39.9661H199.603C200.36 39.9661 200.74 40.2741 200.74 40.8891C200.74 41.5046 200.361 41.8127 199.603 41.8127Z" fill="#5A89C6"/>
<defs>
<linearGradient id="paint0_linear_6649_37398" x1="142.036" y1="78.2337" x2="142.036" y2="-52.8004" gradientUnits="userSpaceOnUse">
<stop stop-color="#E9A249"/>
<stop offset="1" stop-color="#F1D13D"/>
</linearGradient>
<linearGradient id="paint1_linear_6649_37398" x1="194.992" y1="143.178" x2="194.992" y2="66.4246" gradientUnits="userSpaceOnUse">
<stop stop-color="#E9A249"/>
<stop offset="1" stop-color="#F1D13D"/>
</linearGradient>
<linearGradient id="paint2_linear_6649_37398" x1="73.0822" y1="136.217" x2="73.0822" y2="59.4636" gradientUnits="userSpaceOnUse">
<stop stop-color="#E9A249"/>
<stop offset="1" stop-color="#F1D13D"/>
</linearGradient>
<linearGradient id="paint3_linear_6649_37398" x1="270.889" y1="194.147" x2="270.889" y2="117.394" gradientUnits="userSpaceOnUse">
<stop stop-color="#E9A249"/>
<stop offset="1" stop-color="#F1D13D"/>
</linearGradient>
<linearGradient id="paint4_linear_6649_37398" x1="256.461" y1="88.2365" x2="256.461" y2="11.4835" gradientUnits="userSpaceOnUse">
<stop stop-color="#E9A249"/>
<stop offset="1" stop-color="#F1D13D"/>
</linearGradient>
</defs>
</svg>
