<svg width="21" height="20" viewBox="0 0 21 20" fill="none" xmlns="http://www.w3.org/2000/svg">
<path fill-rule="evenodd" clip-rule="evenodd" d="M17.9957 4.58301C17.9947 4.25179 17.8627 3.93442 17.6285 3.70022C17.3943 3.46601 17.0769 3.334 16.7457 3.33301H15.4957C15.1645 3.334 14.8471 3.46601 14.6129 3.70022C14.3787 3.93442 14.2467 4.25179 14.2457 4.58301V17.083C14.2467 17.4142 14.3787 17.7316 14.6129 17.9658C14.8471 18.2 15.1645 18.332 15.4957 18.333H16.7457C17.0769 18.332 17.3943 18.2 17.6285 17.9658C17.8627 17.7316 17.9947 17.4142 17.9957 17.083V4.58301ZM12.3707 8.33301C12.3707 8.00149 12.239 7.68355 12.0046 7.44912C11.7702 7.2147 11.4522 7.08301 11.1207 7.08301H9.87073C9.53921 7.08301 9.22126 7.2147 8.98684 7.44912C8.75242 7.68355 8.62073 8.00149 8.62073 8.33301V17.083C8.62073 17.4145 8.75242 17.7325 8.98684 17.9669C9.22126 18.2013 9.53921 18.333 9.87073 18.333H11.1207C11.4522 18.333 11.7702 18.2013 12.0046 17.9669C12.239 17.7325 12.3707 17.4145 12.3707 17.083V8.33301ZM6.74573 12.083C6.74573 11.7515 6.61403 11.4335 6.37961 11.1991C6.14519 10.9647 5.82725 10.833 5.49573 10.833H4.24573C3.91421 10.833 3.59626 10.9647 3.36184 11.1991C3.12742 11.4335 2.99573 11.7515 2.99573 12.083V17.083C2.99573 17.4145 3.12742 17.7325 3.36184 17.9669C3.59626 18.2013 3.91421 18.333 4.24573 18.333H5.49573C5.82725 18.333 6.14519 18.2013 6.37961 17.9669C6.61403 17.7325 6.74573 17.4145 6.74573 17.083V12.083Z" fill="#ffffff"/>
</svg>
