<svg width="21" height="20" viewBox="0 0 21 20" fill="none" xmlns="http://www.w3.org/2000/svg">
<path d="M11.2154 2.29289C10.8249 1.90237 10.1917 1.90237 9.80119 2.29289L2.80119 9.29289C2.41067 9.68342 2.41067 10.3166 2.80119 10.7071C3.19172 11.0976 3.82488 11.0976 4.21541 10.7071L4.5083 10.4142V17C4.5083 17.5523 4.95602 18 5.5083 18H7.5083C8.06059 18 8.5083 17.5523 8.5083 17V15C8.5083 14.4477 8.95602 14 9.5083 14H11.5083C12.0606 14 12.5083 14.4477 12.5083 15V17C12.5083 17.5523 12.956 18 13.5083 18H15.5083C16.0606 18 16.5083 17.5523 16.5083 17V10.4142L16.8012 10.7071C17.1917 11.0976 17.8249 11.0976 18.2154 10.7071C18.6059 10.3166 18.6059 9.68342 18.2154 9.29289L11.2154 2.29289Z" fill="#BC230B"/>
</svg>
