<svg width="21" height="20" viewBox="0 0 21 20" fill="none" xmlns="http://www.w3.org/2000/svg">
<path d="M17.5561 9.46972H16.0095L12.6258 5.24013C12.4742 5.05067 12.1977 5.01988 12.0081 5.17152C11.8186 5.32313 11.7879 5.59966 11.9395 5.78918L14.884 9.46972H6.10714L9.05159 5.78918C9.2032 5.59966 9.17247 5.3231 8.98298 5.17152C8.79343 5.01988 8.51689 5.05064 8.36531 5.24013L4.98161 9.46972H3.435C3.1923 9.46972 2.99554 9.66648 2.99554 9.90917V10.7881C2.99554 11.0308 3.1923 11.2275 3.435 11.2275H17.5561C17.7988 11.2275 17.9955 11.0308 17.9955 10.7881V9.90917C17.9955 9.66648 17.7988 9.46972 17.5561 9.46972ZM5.64917 17.9401C5.6754 18.0319 5.73084 18.1127 5.80708 18.1702C5.88332 18.2277 5.97622 18.2588 6.07172 18.2588H14.9194C15.0149 18.2588 15.1078 18.2277 15.184 18.1702C15.2603 18.1127 15.3157 18.0319 15.3419 17.9401L17.0086 12.1064H3.98244L5.64917 17.9401ZM12.5084 15.9893L12.9478 13.3526C12.9877 13.1132 13.2141 12.9513 13.4535 12.9914C13.6929 13.0313 13.8547 13.2577 13.8148 13.4971L13.3753 16.1338C13.3395 16.3487 13.1533 16.5011 12.9424 16.5011C12.9184 16.5011 12.8941 16.4991 12.8696 16.495C12.6302 16.4551 12.4685 16.2287 12.5084 15.9893ZM10.0561 13.4248C10.0561 13.1821 10.2528 12.9853 10.4955 12.9853C10.7382 12.9853 10.935 13.1821 10.935 13.4248V16.0615C10.935 16.3042 10.7382 16.501 10.4955 16.501C10.2528 16.501 10.0561 16.3042 10.0561 16.0615V13.4248ZM7.56685 12.9914C7.8063 12.9515 8.03267 13.1132 8.07258 13.3526L8.51203 15.9893C8.55193 16.2287 8.39021 16.4551 8.1508 16.495C8.12636 16.4991 8.10202 16.5011 8.07802 16.5011C7.86706 16.5011 7.68091 16.3488 7.64508 16.1338L7.20562 13.4971C7.16572 13.2577 7.32744 13.0312 7.56685 12.9914Z" fill="#BC230B"/>
</svg>
