<svg width="25" height="24" viewBox="0 0 25 24" fill="none" xmlns="http://www.w3.org/2000/svg">
<path d="M20.3114 4.24731H15.4012C14.6102 4.24731 13.969 4.88852 13.969 5.67948V10.5897C13.969 11.3807 14.6102 12.0219 15.4012 12.0219H20.3114C21.1024 12.0219 21.7436 11.3807 21.7436 10.5897V5.67948C21.7436 4.88852 21.1024 4.24731 20.3114 4.24731Z" fill="#939697"/>
<path d="M21.7297 16.9428L18.8686 14.0818C18.5997 13.814 18.2357 13.6637 17.8563 13.6637C17.4768 13.6637 17.1128 13.814 16.8439 14.0818L13.9829 16.9428C13.7149 17.2116 13.5645 17.5756 13.5645 17.9552C13.5645 18.3347 13.7149 18.6987 13.9829 18.9675L16.8439 21.8285C17.1127 22.0965 17.4768 22.247 17.8563 22.247C18.2358 22.247 18.5998 22.0965 18.8686 21.8285L21.7297 18.9675C21.9978 18.6988 22.1484 18.3347 22.1484 17.9552C22.1484 17.5756 21.9978 17.2115 21.7297 16.9428Z" fill="#939697"/>
<path d="M10.4906 4.24731H5.58036C4.78939 4.24731 4.14819 4.88852 4.14819 5.67948V10.5897C4.14819 11.3807 4.78939 12.0219 5.58036 12.0219H10.4906C11.2816 12.0219 11.9228 11.3807 11.9228 10.5897V5.67948C11.9228 4.88852 11.2816 4.24731 10.4906 4.24731Z" fill="#939697"/>
<path d="M10.4909 14.0679H5.5806C4.78964 14.0679 4.14844 14.7091 4.14844 15.5V20.4103C4.14844 21.2013 4.78964 21.8425 5.5806 21.8425H10.4909C11.2818 21.8425 11.923 21.2013 11.923 20.4103V15.5C11.923 14.7091 11.2818 14.0679 10.4909 14.0679Z" fill="#939697"/>
</svg>
