<svg width="21" height="20" viewBox="0 0 21 20" fill="none" xmlns="http://www.w3.org/2000/svg">
<path d="M17.9952 10.8342C17.9953 10.7075 17.96 10.5833 17.8934 10.4755C17.8268 10.3677 17.7315 10.2806 17.6182 10.224L15.4291 9.12976L17.6182 8.03895C17.7316 7.9824 17.8271 7.89535 17.8938 7.78756C17.9605 7.67978 17.9958 7.55553 17.9958 7.42877C17.9958 7.30201 17.9605 7.17776 17.8938 7.06998C17.8271 6.96219 17.7316 6.87514 17.6182 6.81859L10.8006 3.40979C10.706 3.36251 10.6016 3.33789 10.4958 3.33789C10.3901 3.33789 10.2857 3.36251 10.1911 3.40979L3.3735 6.81859C3.26005 6.87514 3.16461 6.96219 3.0979 7.06998C3.03119 7.17776 2.99585 7.30201 2.99585 7.42877C2.99585 7.55553 3.03119 7.67978 3.0979 7.78756C3.16461 7.89535 3.26005 7.9824 3.3735 8.03895L5.56263 9.12976L3.3735 10.224C3.26005 10.2805 3.16461 10.3676 3.0979 10.4754C3.03119 10.5832 2.99585 10.7074 2.99585 10.8342C2.99585 10.9609 3.03119 11.0852 3.0979 11.193C3.16461 11.3007 3.26005 11.3878 3.3735 11.4443L5.56263 12.5386L3.3735 13.6328C3.26005 13.6893 3.16461 13.7764 3.0979 13.8842C3.03119 13.992 2.99585 14.1162 2.99585 14.243C2.99585 14.3697 3.03119 14.494 3.0979 14.6018C3.16461 14.7095 3.26005 14.7966 3.3735 14.8531L10.1911 18.2619C10.2857 18.3092 10.3901 18.3338 10.4958 18.3338C10.6016 18.3338 10.706 18.3092 10.8006 18.2619L17.6182 14.8531C17.7316 14.7966 17.8271 14.7095 17.8938 14.6018C17.9605 14.494 17.9958 14.3697 17.9958 14.243C17.9958 14.1162 17.9605 13.992 17.8938 13.8842C17.8271 13.7764 17.7316 13.6893 17.6182 13.6328L15.4291 12.5386L17.6182 11.4477C17.732 11.3909 17.8277 11.3032 17.8943 11.1948C17.961 11.0864 17.9959 10.9614 17.9952 10.8342ZM15.789 14.243L10.4958 16.8896L5.20266 14.243L7.08705 13.3008L10.1911 14.8565C10.2857 14.9038 10.3901 14.9285 10.4958 14.9285C10.6016 14.9285 10.706 14.9038 10.8006 14.8565L13.9047 13.3008L15.789 14.243ZM10.4958 13.4808L5.20266 10.8342L7.08705 9.89197L10.1911 11.4477C10.2857 11.495 10.3901 11.5196 10.4958 11.5196C10.6016 11.5196 10.706 11.495 10.8006 11.4477L13.9047 9.89197L15.789 10.8342L10.4958 13.4808Z" fill="#8F9597"/>
</svg>
