<svg width="38" height="39" viewBox="0 0 38 39" fill="none" xmlns="http://www.w3.org/2000/svg">
<g filter="url(#filter0_d_6697_5889)">
<path d="M19 37C28.9411 37 37 28.9411 37 19C37 9.05888 28.9411 1 19 1C9.05888 1 1 9.05888 1 19C1 28.9411 9.05888 37 19 37Z" fill="black"/>
</g>
<path d="M19 37C28.9411 37 37 28.9411 37 19C37 9.05888 28.9411 1 19 1C9.05888 1 1 9.05888 1 19C1 28.9411 9.05888 37 19 37Z" fill="#627EEA"/>
<path style="mix-blend-mode:soft-light" d="M19 37C28.9411 37 37 28.9411 37 19C37 9.05888 28.9411 1 19 1C9.05888 1 1 9.05888 1 19C1 28.9411 9.05888 37 19 37Z" fill="url(#paint0_linear_6697_5889)"/>
<path d="M19.0001 36.4C28.6099 36.4 36.4001 28.6097 36.4001 19C36.4001 9.39022 28.6099 1.59998 19.0001 1.59998C9.39034 1.59998 1.6001 9.39022 1.6001 19C1.6001 28.6097 9.39034 36.4 19.0001 36.4Z" stroke="black" stroke-opacity="0.097" stroke-width="0.837209"/>
<g filter="url(#filter1_d_6697_5889)">
<path d="M19.5979 26.1619L28.6003 20.9395L19.5979 33.3943L10.6003 20.9383L19.5979 26.1595V26.1619ZM19.5979 4.60034L28.5943 19.2643L19.5979 24.4879L10.6003 19.2643L19.5979 4.60034Z" fill="black"/>
</g>
<path d="M19.5991 4.59985V15.2439L28.5955 19.2639L19.5991 4.59985Z" fill="white" fill-opacity="0.602"/>
<path d="M19.5979 4.59985L10.6003 19.2639L19.5979 15.2439V4.59985Z" fill="white"/>
<path d="M19.5991 26.1611V33.3935L28.6015 20.9387L19.5991 26.1611Z" fill="white" fill-opacity="0.602"/>
<path d="M19.5977 33.3935V26.1599L10.6001 20.9387L19.5977 33.3935Z" fill="white"/>
<path d="M19.5991 24.4879L28.5955 19.2643L19.5991 15.2467V24.4879Z" fill="white" fill-opacity="0.2"/>
<path d="M10.6001 19.2643L19.5977 24.4879V15.2467L10.6001 19.2643Z" fill="white" fill-opacity="0.602"/>
<defs>
<filter id="filter0_d_6697_5889" x="0.162791" y="0.581395" width="37.6744" height="37.6744" filterUnits="userSpaceOnUse" color-interpolation-filters="sRGB">
<feFlood flood-opacity="0" result="BackgroundImageFix"/>
<feColorMatrix in="SourceAlpha" type="matrix" values="0 0 0 0 0 0 0 0 0 0 0 0 0 0 0 0 0 0 127 0" result="hardAlpha"/>
<feOffset dy="0.418605"/>
<feGaussianBlur stdDeviation="0.418605"/>
<feColorMatrix type="matrix" values="0 0 0 0 0 0 0 0 0 0 0 0 0 0 0 0 0 0 0.199474 0"/>
<feBlend mode="normal" in2="BackgroundImageFix" result="effect1_dropShadow_6697_5889"/>
<feBlend mode="normal" in="SourceGraphic" in2="effect1_dropShadow_6697_5889" result="shape"/>
</filter>
<filter id="filter1_d_6697_5889" x="9.76313" y="4.18174" width="19.6744" height="30.4684" filterUnits="userSpaceOnUse" color-interpolation-filters="sRGB">
<feFlood flood-opacity="0" result="BackgroundImageFix"/>
<feColorMatrix in="SourceAlpha" type="matrix" values="0 0 0 0 0 0 0 0 0 0 0 0 0 0 0 0 0 0 127 0" result="hardAlpha"/>
<feOffset dy="0.418605"/>
<feGaussianBlur stdDeviation="0.418605"/>
<feColorMatrix type="matrix" values="0 0 0 0 0 0 0 0 0 0 0 0 0 0 0 0 0 0 0.204257 0"/>
<feBlend mode="normal" in2="BackgroundImageFix" result="effect1_dropShadow_6697_5889"/>
<feBlend mode="normal" in="SourceGraphic" in2="effect1_dropShadow_6697_5889" result="shape"/>
</filter>
<linearGradient id="paint0_linear_6697_5889" x1="19" y1="1" x2="19" y2="37" gradientUnits="userSpaceOnUse">
<stop stop-color="white" stop-opacity="0.5"/>
<stop offset="1" stop-opacity="0.5"/>
</linearGradient>
</defs>
</svg>
