<svg width="261" height="229" viewBox="0 0 261 229" fill="none" xmlns="http://www.w3.org/2000/svg">
<g clip-path="url(#clip0_6697_6322)">
<path d="M130.489 179.887C130.916 179.887 131.334 179.761 131.689 179.523C132.045 179.286 132.322 178.948 132.485 178.554C132.649 178.159 132.691 177.724 132.608 177.305C132.525 176.886 132.319 176.501 132.017 176.199C131.715 175.897 131.33 175.691 130.91 175.607C130.491 175.524 130.057 175.567 129.662 175.73C129.267 175.894 128.93 176.171 128.692 176.526C128.455 176.882 128.328 177.299 128.328 177.727C128.328 178.3 128.556 178.849 128.961 179.255C129.366 179.66 129.916 179.887 130.489 179.887Z" fill="#594A4A"/>
<path d="M67.7246 17.2407V26.7172" stroke="#594A4A" stroke-width="6.34495" stroke-linecap="round" stroke-linejoin="round"/>
<path d="M62.9883 21.981H72.4897" stroke="#594A4A" stroke-width="6.34495" stroke-linecap="round" stroke-linejoin="round"/>
<path d="M175.657 77.0688C157.185 77.0688 138.423 76.3181 120.855 71.4244C103.288 66.5306 87.7893 57.361 73.6803 46.6238C64.4195 39.6356 56.042 34.0617 44.044 34.8995C32.318 35.5299 21.1046 39.9103 12.0562 47.3952C-3.23477 60.7576 -0.920599 85.467 5.16343 102.852C14.3538 128.98 42.2856 147.162 65.983 159.002C93.3881 172.688 123.476 180.651 153.681 185.213C180.132 189.248 214.107 192.155 237.041 174.874C258.109 158.99 263.882 122.759 258.723 98.2903C257.466 91.0578 253.609 84.534 247.878 79.947C233.084 69.1227 211.017 76.3555 194.399 76.708C188.223 76.8283 181.965 77.0688 175.657 77.0688Z" fill="#332727"/>
<path d="M145.79 4.32193C146.217 4.32193 146.635 4.19521 146.99 3.95779C147.345 3.72036 147.622 3.3829 147.786 2.98808C147.949 2.59326 147.992 2.15881 147.909 1.73968C147.825 1.32054 147.62 0.935533 147.317 0.63335C147.015 0.331168 146.63 0.125379 146.211 0.0420069C145.792 -0.041365 145.358 0.0014245 144.963 0.164964C144.568 0.328504 144.23 0.60545 143.993 0.960779C143.756 1.31611 143.629 1.73386 143.629 2.16121C143.629 2.73427 143.857 3.28386 144.262 3.68907C144.667 4.09429 145.217 4.32193 145.79 4.32193Z" fill="#594A4A"/>
<path d="M33.5566 172.547V182.028" stroke="#594A4A" stroke-width="6.34495" stroke-linecap="round" stroke-linejoin="round"/>
<path d="M28.7949 177.288H38.2963" stroke="#594A4A" stroke-width="6.34495" stroke-linecap="round" stroke-linejoin="round"/>
<path d="M131.393 228.1C176.083 228.1 212.318 225.84 212.318 223.053C212.318 220.266 176.083 218.001 131.393 218.001C86.7016 218.001 50.4629 220.262 50.4629 223.053C50.4629 225.844 86.6975 228.1 131.393 228.1Z" fill="#332727"/>
<path d="M196.426 168.976H56.6629C55.7273 168.975 54.8031 168.771 53.9542 168.378C53.1053 167.984 52.3519 167.411 51.7461 166.698C51.1404 165.985 50.6967 165.149 50.4457 164.248C50.1948 163.347 50.1426 162.402 50.2927 161.478L68.1425 53.0853C68.3972 51.5786 69.177 50.2106 70.3437 49.2238C71.5104 48.237 72.9888 47.695 74.5169 47.6938H214.238C215.17 47.6957 216.091 47.8993 216.937 48.2906C217.784 48.682 218.535 49.2518 219.14 49.961C219.746 50.6702 220.19 51.502 220.443 52.3992C220.697 53.2965 220.753 54.2379 220.608 55.1589L202.75 163.572C202.502 165.073 201.731 166.438 200.574 167.425C199.416 168.412 197.947 168.957 196.426 168.964V168.976Z" fill="#3E2D2D" stroke="#594A4A" stroke-width="6.34495" stroke-miterlimit="10"/>
<path d="M198.128 44.8206L115.158 7.77313C114.576 7.5128 113.948 7.36969 113.311 7.35197C112.673 7.33426 112.039 7.44228 111.443 7.66988C110.847 7.89748 110.302 8.2402 109.839 8.67846C109.375 9.11672 109.003 9.64195 108.742 10.2242L82.4447 69.1152C81.9204 70.29 81.8841 71.6249 82.3437 72.8264C82.8033 74.028 83.7213 74.9978 84.8957 75.5228L167.87 112.57C169.043 113.091 170.374 113.127 171.574 112.669C172.773 112.211 173.742 111.298 174.269 110.128L200.567 51.2364C200.829 50.6551 200.973 50.0279 200.993 49.3907C201.012 48.7534 200.905 48.1186 200.678 47.5227C200.452 46.9268 200.11 46.3813 199.673 45.9177C199.235 45.454 198.71 45.0812 198.128 44.8206Z" fill="#3E2D2D" stroke="#594A4A" stroke-width="6.34495" stroke-miterlimit="10"/>
<path d="M127.336 56.2363C129.547 53.2361 132.718 51.0824 136.323 50.1326C139.927 49.1828 143.747 49.494 147.15 51.0146C150.553 52.5352 153.334 55.1737 155.031 58.4922C156.727 61.8108 157.238 65.6098 156.479 69.2587" stroke="#594A4A" stroke-width="4.3055" stroke-linecap="round" stroke-linejoin="round"/>
<path d="M167.038 52.9072C167.488 52.9072 167.928 52.7738 168.301 52.5239C168.675 52.274 168.967 51.9188 169.138 51.5033C169.31 51.0878 169.355 50.6306 169.267 50.1896C169.179 49.7486 168.962 49.3437 168.644 49.026C168.326 48.7083 167.92 48.4922 167.479 48.405C167.038 48.3178 166.581 48.3634 166.166 48.536C165.751 48.7087 165.396 49.0006 165.147 49.3749C164.897 49.7492 164.765 50.189 164.766 50.6387C164.766 50.9369 164.824 51.2323 164.939 51.5078C165.053 51.7833 165.22 52.0335 165.432 52.2442C165.643 52.4549 165.893 52.622 166.169 52.7357C166.445 52.8495 166.74 52.9078 167.038 52.9072Z" fill="#594A4A"/>
<path d="M134.147 38.2256C134.597 38.2264 135.037 38.0937 135.412 37.8443C135.786 37.5949 136.078 37.24 136.251 36.8245C136.423 36.4091 136.468 35.9518 136.381 35.5105C136.293 35.0693 136.077 34.6639 135.759 34.3458C135.441 34.0277 135.035 33.8112 134.594 33.7236C134.153 33.6361 133.695 33.6814 133.28 33.854C132.865 34.0265 132.51 34.3184 132.26 34.6928C132.011 35.0672 131.878 35.5072 131.879 35.957C131.879 36.5587 132.118 37.1357 132.543 37.5611C132.969 37.9866 133.546 38.2256 134.147 38.2256Z" fill="#594A4A"/>
<path d="M195.808 168.931H55.3574C54.5105 168.932 53.6717 168.767 52.8889 168.444C52.1061 168.121 51.3947 167.646 50.7954 167.048C50.1955 166.45 49.72 165.739 49.3961 164.956C49.0723 164.173 48.9065 163.333 48.9084 162.486V63.2712C48.9023 62.4177 49.0673 61.5716 49.3936 60.7829C49.715 60.0056 50.1888 59.3005 50.7871 58.7093C51.3788 58.1095 52.0836 57.633 52.8607 57.3075C53.643 56.9831 54.4814 56.8154 55.3283 56.814H106.481C107.672 56.8147 108.84 57.1447 109.856 57.7675C110.872 58.3903 111.696 59.2817 112.237 60.3433L119.524 74.6223C120.059 75.6826 120.879 76.5729 121.892 77.1936C122.904 77.8156 124.067 78.1471 125.255 78.1516H195.8C196.648 78.1505 197.489 78.3166 198.273 78.6404C199.057 78.9641 199.77 79.4392 200.37 80.0385C200.97 80.6378 201.447 81.3495 201.772 82.133C202.098 82.9165 202.265 83.7564 202.266 84.6047V162.49C202.267 163.339 202.101 164.179 201.776 164.963C201.452 165.747 200.977 166.459 200.377 167.059C199.777 167.659 199.065 168.134 198.281 168.458C197.497 168.782 196.657 168.949 195.808 168.948V168.931Z" fill="#3E2D2D" stroke="#594A4A" stroke-width="6.34495" stroke-miterlimit="10"/>
<path d="M174.267 81.478C164.084 81.4711 154.261 85.2526 146.711 92.0869C139.161 98.9212 134.423 108.32 133.419 118.454C132.415 128.588 135.216 138.734 141.278 146.917C147.34 155.1 156.23 160.735 166.217 162.727C176.204 164.719 186.575 162.924 195.313 157.692C204.05 152.461 210.529 144.166 213.489 134.421C216.449 124.677 215.679 114.18 211.327 104.973C206.976 95.7649 199.356 88.505 189.948 84.6051C184.977 82.5446 179.649 81.482 174.267 81.478Z" fill="#3E2D2D" stroke="#594A4A" stroke-width="6.34495" stroke-miterlimit="10"/>
<path d="M203.391 152.308L214.327 163.244" stroke="#594A4A" stroke-width="4.3055" stroke-linecap="round" stroke-linejoin="round"/>
<path d="M213.079 157.956L209.683 161.511C208.952 162.276 208.555 163.3 208.579 164.357C208.603 165.415 209.047 166.42 209.811 167.151L239.29 195.336C240.055 196.066 241.079 196.463 242.136 196.44C243.193 196.416 244.198 195.975 244.93 195.211L248.331 191.657C249.062 190.892 249.459 189.868 249.435 188.81C249.411 187.753 248.968 186.748 248.203 186.017L218.724 157.815C217.957 157.086 216.931 156.691 215.873 156.718C214.814 156.744 213.809 157.19 213.079 157.956Z" fill="#594A4A"/>
<path d="M234.893 2.16064V11.662" stroke="#594A4A" stroke-width="6.34495" stroke-linecap="round" stroke-linejoin="round"/>
<path d="M230.152 6.92236H239.654" stroke="#594A4A" stroke-width="6.34495" stroke-linecap="round" stroke-linejoin="round"/>
</g>
<defs>
<clipPath id="clip0_6697_6322">
<rect width="260" height="228.099" fill="white" transform="translate(0.5)"/>
</clipPath>
</defs>
</svg>
